CTYPE svg PUBLIC "-//W3C//DTD SVG 20010904//EN"
 "http://www.w3.org/TR/2001/REC-SVG-20010904/DTD/svg10.dtd">
<svg version="1.0" xmlns="http://www.w3.org/2000/svg"
 width="1280.000000pt" height="960.000000pt" viewBox="0 0 1280.000000 960.000000"
 preserveAspectRatio="xMidYMid meet">
<metadata>
Created by potrace 1.15, written by Peter Selinger 2001-2017
</metadata>
<g transform="translate(0.000000,960.000000) scale(0.100000,-0.100000)"
fill="#000000" stroke="none">
<path d="M0 4800 l0 -4800 6400 0 6400 0 0 2320 c0 1839 -3 2320 -13 2319 -6
-1 -23 2 -36 8 -22 9 -23 10 -5 17 11 4 20 3 22 -3 2 -6 10 -11 18 -11 11 0
14 22 14 115 0 97 -2 115 -15 115 -13 0 -14 4 -5 21 14 25 14 25 -27 34 -26 5
-33 3 -33 -9 0 -9 -7 -16 -15 -16 -8 0 -15 5 -15 10 0 6 4 10 10 10 13 0 7 34
-9 54 -14 16 -51 22 -51 8 0 -17 -46 -6 -66 15 -12 13 -27 23 -33 23 -6 0 -14
7 -17 15 -5 12 -9 12 -28 0 -18 -12 -27 -12 -65 1 -30 10 -47 12 -56 4 -7 -6
-21 -7 -31 -3 -16 6 -17 4 -7 -8 7 -8 26 -14 47 -13 20 1 39 -2 42 -7 3 -5 21
-9 39 -9 24 0 33 -4 29 -13 -5 -13 -12 -15 -79 -19 -22 -2 -46 -7 -54 -12 -8
-5 -31 -8 -53 -8 -28 1 -38 -2 -38 -13 0 -8 -7 -15 -15 -15 -17 0 -20 21 -4
37 8 8 8 13 0 17 -17 11 -13 29 6 22 10 -4 23 1 35 14 13 13 15 20 6 20 -7 1
0 12 17 25 l30 25 -32 6 c-53 11 -49 32 6 30 26 0 47 -5 47 -11 -2 -21 19 -15
26 7 5 20 6 21 7 3 1 -21 37 -50 45 -37 2 4 17 7 33 6 84 -3 85 -4 79 -20 -3
-8 -2 -12 4 -9 6 3 10 13 10 21 0 8 5 12 10 9 6 -4 8 -10 5 -15 -3 -5 5 -16
17 -24 12 -9 19 -16 15 -16 -4 0 -2 -6 5 -14 18 -19 35 -2 18 18 -11 14 -7 14
34 2 25 -8 46 -11 46 -7 0 11 64 0 73 -13 4 -6 6 9 5 34 -3 37 -6 45 -23 45
-13 0 -21 8 -23 23 -2 12 1 22 7 22 6 0 11 -4 11 -10 0 -5 7 -10 15 -10 18 0
18 1 5 34 -5 14 -16 26 -24 26 -8 0 -27 5 -43 12 -15 6 -32 12 -38 13 -20 3
-45 17 -45 27 0 5 5 6 10 3 6 -3 10 -2 10 4 0 5 -5 11 -11 13 -5 2 -7 11 -3
21 5 13 10 15 19 7 9 -8 14 -5 18 9 4 16 10 19 33 12 16 -4 41 -4 57 2 22 7
27 15 27 43 0 31 -2 33 -24 24 -20 -7 -25 -5 -29 11 -5 19 8 28 15 8 2 -5 11
-7 21 -4 20 8 24 74 6 92 -8 8 -8 13 0 17 14 9 15 306 1 306 -5 0 -10 5 -10
11 0 5 5 7 10 4 7 -4 10 48 10 149 0 114 -3 156 -12 159 -10 4 -10 6 0 6 9 1
12 77 12 345 0 339 0 344 -20 339 -14 -4 -20 0 -20 10 0 8 -2 21 -5 29 -3 7 0
20 5 28 9 13 11 13 20 0 5 -8 8 -21 5 -27 -2 -7 -1 -13 4 -13 5 0 9 18 9 40 1
25 -4 39 -11 37 -18 -3 -21 42 -3 49 14 5 16 64 16 535 l0 529 -67 -4 c-38 -2
-87 -7 -109 -11 -30 -5 -45 -3 -54 7 -10 10 -29 12 -79 7 -66 -7 -91 -4 -91
12 0 14 -54 10 -88 -6 -17 -9 -59 -18 -94 -22 -43 -3 -69 -11 -81 -24 -18 -19
-62 -26 -71 -10 -3 4 -42 11 -86 14 -75 5 -117 -2 -163 -25 -11 -5 -58 -4
-122 3 -81 10 -113 10 -144 1 -32 -10 -48 -10 -87 4 -26 9 -50 12 -53 7 -16
-22 -118 -42 -189 -37 -47 3 -72 2 -72 -5 0 -6 -7 -8 -15 -5 -8 3 -20 2 -27
-2 -15 -9 -29 -11 -200 -20 -123 -6 -138 -5 -138 9 0 9 8 21 18 26 15 10 15
10 -4 11 -11 0 -25 -5 -32 -12 -9 -9 -12 -7 -12 10 0 12 -4 22 -10 22 -5 0
-10 9 -10 19 0 11 -9 22 -19 26 -23 7 -35 35 -21 49 20 20 9 26 -44 26 -69 0
-89 19 -57 54 16 17 20 30 15 49 -5 22 -9 25 -25 16 -17 -9 -19 -6 -19 23 0
25 -3 29 -12 20 -18 -18 -26 -15 -30 10 -3 22 -3 22 -21 -5 -10 -15 -19 -48
-21 -73 -2 -25 -9 -51 -15 -57 -6 -6 -11 -22 -11 -37 0 -14 -4 -32 -10 -40 -7
-12 -13 -10 -32 13 -29 33 -39 34 -35 5 1 -15 -4 -23 -16 -26 -16 -3 -17 -1
-8 16 9 16 7 22 -11 34 -20 13 -20 16 -5 39 8 13 18 38 21 54 5 25 2 35 -19
53 -14 12 -25 28 -25 36 0 22 -19 30 -35 16 -12 -10 -15 -9 -15 9 0 25 -46 51
-89 51 -16 0 -31 5 -33 11 -5 15 -68 22 -68 9 0 -6 6 -19 12 -30 10 -16 10
-24 0 -40 -6 -11 -12 -31 -12 -44 0 -15 -7 -26 -20 -29 -11 -3 -22 -17 -25
-33 -11 -50 -14 -54 -37 -54 -21 -1 -68 -31 -68 -44 0 -3 6 -6 14 -6 12 0 46
-40 46 -55 0 -11 -45 -22 -51 -13 -4 7 -18 4 -38 -8 -31 -18 -54 -13 -33 8 13
13 17 58 5 58 -15 0 -12 95 3 115 13 17 17 18 36 6 17 -11 22 -11 29 1 12 18
11 26 -3 25 -55 -2 -59 2 -52 41 4 20 13 49 21 64 7 15 12 29 11 31 -2 2 5 15
14 29 14 21 16 33 8 53 -8 22 -6 27 15 37 19 9 22 14 14 25 -6 7 -17 13 -25
13 -7 0 -18 9 -24 20 -10 19 -58 28 -73 14 -3 -3 1 -27 9 -52 14 -49 18 -121
8 -159 -9 -32 -21 -28 -22 7 -1 39 -12 57 -23 39 -6 -10 -10 -5 -15 17 -5 27
-10 30 -39 29 -40 -1 -52 -10 -38 -27 6 -7 13 -26 16 -43 4 -16 4 -24 1 -17
-9 19 -24 14 -24 -8 0 -11 6 -20 14 -20 9 0 17 -15 21 -40 4 -23 12 -40 20
-40 34 0 17 -81 -19 -88 -13 -3 -17 1 -12 15 19 65 19 73 -3 73 -14 0 -21 -6
-21 -18 0 -29 -10 -32 -42 -16 -27 14 -30 19 -25 51 l6 35 -34 -6 c-28 -6 -35
-4 -35 9 0 8 -6 15 -14 15 -8 0 -22 3 -31 6 -12 5 -16 2 -13 -12 2 -11 6 -21
10 -24 3 -3 8 -14 10 -24 2 -14 -5 -21 -27 -28 -32 -9 -28 -11 -96 70 -10 12
-19 26 -19 30 0 4 -9 15 -20 24 -17 15 -22 16 -50 2 -25 -13 -29 -20 -24 -37
3 -12 10 -26 14 -30 9 -10 -70 -97 -88 -97 -14 0 -25 39 -20 71 2 17 -4 27
-22 36 -20 10 -26 10 -28 0 -1 -7 -11 -18 -22 -25 -16 -10 -18 -9 -14 3 4 8 2
15 -2 15 -5 0 -9 15 -9 34 0 19 3 32 8 29 4 -2 7 2 8 9 0 7 2 22 4 34 3 14 -6
30 -26 48 -16 15 -27 32 -23 38 5 7 12 5 22 -8 8 -10 12 -14 10 -9 -24 59 -41
85 -52 85 -15 0 -52 49 -48 63 1 5 -2 6 -8 2 -5 -3 -10 -2 -10 3 0 13 -56 33
-66 24 -4 -4 -4 -1 0 6 5 9 19 11 39 7 27 -5 30 -4 16 7 -17 14 -14 42 3 32 7
-4 8 -2 4 4 -4 7 -16 17 -28 23 -16 9 -19 8 -13 -3 6 -10 5 -11 -6 0 -15 14
-33 16 -24 3 6 -11 -25 -45 -33 -36 -4 3 0 11 8 16 11 8 12 12 2 16 -6 2 -12
9 -12 14 0 6 4 8 8 5 4 -2 14 -1 22 5 13 7 12 9 -2 9 -10 0 -18 5 -18 11 0 5
4 8 9 4 5 -3 13 0 17 6 4 8 3 9 -4 5 -7 -4 -12 -1 -12 8 0 9 -4 16 -10 16 -5
0 -10 -7 -10 -15 0 -8 -5 -15 -10 -15 -16 0 -7 22 20 48 l25 24 -29 -3 c-17
-3 -31 1 -33 9 -3 6 0 12 7 12 6 0 8 -5 4 -12 -5 -7 -3 -8 5 -3 18 10 0 25
-35 29 -16 2 -32 4 -35 5 -18 3 -15 44 4 63 l22 20 -22 -11 c-12 -6 -30 -11
-40 -10 -11 0 -13 3 -5 6 10 4 10 8 0 21 -14 17 -19 62 -6 62 4 0 8 5 8 11 0
8 -5 8 -15 -1 -8 -7 -13 -16 -10 -20 3 -4 -12 -2 -32 5 -21 7 -39 19 -41 26
-2 10 0 10 7 -1 6 -8 11 -13 12 -10 6 31 4 48 -5 42 -16 -10 -36 -11 -33 -2 1
4 -11 22 -27 40 -17 20 -22 31 -13 27 9 -3 19 -2 22 3 3 5 -4 11 -15 15 -23 7
-26 21 -7 28 6 3 3 6 -9 6 -11 1 -25 6 -31 12 -7 7 -15 5 -27 -7 -17 -16 -17
-16 -14 2 2 13 -2 18 -14 16 -9 -1 -20 3 -24 9 -4 8 -3 9 4 5 7 -4 12 -2 12 3
0 6 -4 11 -9 11 -5 0 -11 10 -14 21 -6 21 -7 21 -23 4 -11 -11 -20 -13 -22 -7
-2 6 -10 8 -19 5 -13 -5 -15 -2 -10 16 4 17 2 21 -9 17 -8 -3 -14 -1 -14 5 0
6 -7 8 -15 5 -10 -4 -19 2 -25 17 -9 22 -9 22 -10 -3 0 -14 -3 -20 -8 -14 -4
6 -18 17 -31 24 -19 10 -22 10 -15 -2 6 -10 4 -10 -9 1 -10 8 -20 11 -24 7 -3
-3 -15 1 -25 11 -17 15 -18 15 -18 0 0 -10 -4 -17 -10 -17 -5 0 -10 6 -10 13
0 9 -3 8 -9 -2 -6 -10 -13 -11 -27 -3 -13 7 -24 6 -41 -5 -21 -14 -23 -14 -24
3 0 13 -2 15 -6 5 -4 -10 -9 -8 -19 10 -14 24 -14 24 -8 -5 6 -27 5 -29 -19
-24 -24 5 -25 3 -15 -16 10 -18 7 -17 -25 7 -42 32 -48 33 -42 10 3 -10 -1 -4
-9 12 -12 24 -15 26 -16 10 0 -17 -2 -17 -10 -5 -8 13 -10 12 -10 -3 0 -10 -5
-15 -10 -12 -6 4 -8 11 -5 16 4 5 0 10 -7 10 -51 5 -78 19 -84 45 -3 13 -10
21 -15 18 -5 -3 -9 0 -9 6 0 6 -13 16 -30 21 -16 6 -27 15 -24 20 3 5 -3 9
-13 10 -13 0 -12 3 7 10 13 6 35 7 48 4 20 -5 22 -4 10 9 -7 8 -15 14 -18 13
-17 -3 -49 16 -44 26 4 7 3 8 -2 4 -5 -5 -9 -13 -9 -18 0 -5 -4 -9 -10 -10 -5
0 -16 -5 -23 -11 -10 -8 -10 -14 0 -27 10 -13 10 -14 -2 -4 -9 8 -19 9 -31 2
-15 -8 -17 -6 -12 7 5 14 3 15 -15 5 -16 -8 -23 -8 -28 1 -8 13 -26 -24 -28
-57 -2 -31 -34 -31 -46 0 -5 14 -15 23 -20 20 -6 -3 -13 1 -16 9 -3 9 -11 16
-17 16 -5 0 -3 -8 5 -17 9 -10 19 -28 22 -40 6 -18 4 -21 -12 -18 -13 2 -19
-2 -18 -13 1 -17 -2 -19 -61 -21 l-38 -2 33 -14 c36 -16 43 -26 10 -17 -14 3
-19 2 -14 -6 4 -8 0 -12 -12 -12 -21 0 -56 33 -45 43 3 4 -1 7 -10 7 -9 0 -19
-5 -22 -10 -4 -6 -1 -9 6 -8 6 2 13 -1 15 -7 2 -5 -7 -10 -21 -10 -29 0 -40
19 -19 35 21 18 18 27 -15 43 -23 11 -28 12 -25 2 8 -19 -31 -28 -58 -14 -21
10 -20 9 5 -18 22 -23 25 -32 15 -40 -30 -23 -38 -24 -38 -4 0 15 4 19 17 14
15 -6 16 -5 3 9 -8 8 -21 13 -27 11 -18 -7 -16 22 2 37 8 7 15 21 15 32 0 11
5 29 11 41 10 21 10 21 -5 3 -9 -11 -16 -26 -16 -33 0 -19 -27 -16 -40 5 -7
12 -9 -4 -6 -64 4 -71 2 -80 -13 -79 -9 0 -23 5 -31 9 -11 7 -12 6 -4 -3 8 -9
7 -21 -5 -47 -16 -37 -32 -46 -24 -14 9 33 -6 22 -17 -12 l-10 -33 5 33 c2 17
2 32 0 32 -13 0 -40 -37 -37 -51 2 -9 -9 -21 -25 -28 -28 -13 -28 -13 -9 8 28
31 14 35 -18 6 -26 -24 -27 -24 -21 -4 11 33 -13 14 -29 -24 -8 -18 -21 -41
-29 -52 -14 -19 -15 -18 -11 10 4 29 4 29 -6 5 -9 -20 -13 -22 -20 -10 -5 8
-10 11 -11 5 -1 -5 -3 -14 -4 -20 -2 -5 -3 -15 -4 -21 0 -6 -16 -15 -33 -19
-18 -4 -35 -8 -38 -9 -3 -1 -10 -4 -15 -8 -6 -4 -17 -2 -25 3 -13 8 -13 10 0
20 12 9 12 10 -4 5 -10 -4 -25 -1 -32 5 -11 9 -14 9 -14 0 0 -12 -38 5 -74 33
-18 15 -18 17 10 62 55 89 74 134 54 134 -6 0 -14 -10 -19 -22 -5 -13 -20 -40
-34 -60 -14 -20 -27 -47 -29 -60 -4 -28 -24 -51 -38 -43 -6 4 -10 3 -9 -2 4
-15 -13 -43 -23 -37 -5 3 -24 8 -41 11 -40 6 -48 13 -16 13 l24 1 -22 18 c-28
23 -29 31 -5 32 11 0 12 2 4 6 -7 3 -20 -1 -28 -8 -14 -12 -14 -14 2 -26 16
-12 15 -13 -13 -13 -30 0 -32 3 -52 67 -31 97 -28 131 14 180 19 22 46 44 61
47 42 11 123 75 124 98 0 18 -46 -12 -60 -38 -16 -27 -73 -55 -86 -41 -4 4 0
33 9 67 12 51 13 60 1 60 -8 0 -14 -10 -14 -22 0 -13 -7 -36 -15 -52 -8 -15
-15 -36 -15 -45 0 -22 -28 -61 -44 -61 -24 0 -18 74 9 114 25 37 27 62 3 38
-7 -7 -27 -12 -45 -12 -27 0 -33 4 -33 21 0 18 -4 20 -27 14 -39 -9 -40 -12
-10 -43 26 -27 38 -82 17 -82 -16 0 -12 -20 10 -47 11 -14 20 -33 20 -42 0 -9
10 -36 22 -61 11 -25 23 -52 25 -60 9 -41 20 -136 16 -142 -8 -15 -23 -8 -37
20 -8 15 -26 34 -39 41 -14 7 -28 22 -30 33 -3 12 -12 18 -23 16 -11 -2 -23 7
-30 22 -16 29 -10 38 12 20 13 -12 17 -11 25 1 16 25 10 37 -21 44 -39 9 -62
39 -100 133 -46 114 -64 152 -73 152 -11 0 2 -44 44 -148 31 -75 35 -94 24
-98 -15 -6 -115 61 -115 77 0 16 -18 9 -22 -8 -2 -10 8 -28 22 -40 14 -12 19
-23 12 -23 -7 0 -15 7 -18 15 -5 12 -9 13 -20 4 -17 -14 -19 -12 -28 17 -4 13
-1 26 9 34 13 11 10 17 -24 49 -21 20 -41 46 -45 59 -8 23 -30 30 -41 12 -3
-5 0 -10 8 -10 19 0 46 -61 37 -85 -4 -11 -2 -31 4 -44 8 -19 7 -26 -10 -40
-11 -9 -18 -23 -16 -33 2 -9 -2 -19 -7 -23 -7 -3 -11 3 -11 14 0 12 -7 21 -15
21 -18 0 -18 0 0 -38 13 -26 14 -34 3 -52 -7 -11 -23 -23 -35 -26 -13 -4 -23
-12 -23 -18 0 -13 -78 -86 -91 -86 -4 0 -14 7 -23 15 -8 8 -19 15 -25 15 -13
0 -41 53 -41 79 0 11 -4 22 -9 26 -6 3 -6 18 0 38 11 40 11 48 -1 67 -9 13
-11 13 -20 0 -5 -8 -10 -25 -10 -37 0 -13 -4 -23 -10 -23 -5 0 -10 8 -10 18 0
9 -5 24 -10 32 -8 13 -11 13 -26 -2 -15 -14 -15 -20 -4 -33 7 -9 15 -26 17
-38 1 -12 4 -30 5 -41 2 -11 -6 -21 -20 -27 -19 -7 -24 -5 -31 14 -5 13 -5 30
1 41 11 20 -5 46 -16 27 -17 -26 -54 -11 -83 34 -17 28 -35 44 -48 45 -13 0
-31 17 -48 45 -16 25 -34 45 -41 45 -20 0 -37 62 -27 98 9 31 9 32 -20 32 -16
0 -29 -5 -29 -12 0 -9 -3 -9 -12 0 -13 13 -98 17 -98 4 0 -5 16 -14 35 -22 19
-8 35 -20 35 -27 0 -7 5 -13 10 -13 6 0 10 -16 10 -35 0 -32 2 -34 20 -23 17
11 25 6 72 -44 29 -31 65 -71 81 -89 27 -32 27 -32 8 -51 -11 -10 -33 -18 -48
-18 -20 0 -24 -3 -16 -11 8 -8 25 -8 63 0 28 6 56 9 61 5 26 -15 -7 -59 -45
-59 -14 0 -22 -8 -26 -30 -4 -17 -23 -47 -43 -66 -20 -20 -37 -43 -37 -51 0
-19 -27 -55 -35 -47 -3 4 0 22 8 42 15 35 12 50 -12 55 -18 4 -32 -18 -25 -40
4 -13 1 -16 -9 -12 -9 3 -22 -4 -31 -18 -18 -25 -21 -42 -6 -33 5 3 19 1 30
-5 23 -12 23 -16 -11 -170 -28 -128 -40 -163 -62 -182 -10 -10 -15 -18 -9 -18
6 0 12 -15 14 -32 4 -45 20 -41 30 7 5 22 11 47 15 55 7 17 9 31 11 78 2 27 6
32 27 32 29 0 32 8 8 26 -15 10 -16 15 -5 25 6 7 12 20 12 29 0 8 11 27 24 41
14 16 21 30 16 35 -14 14 41 150 67 166 12 7 32 29 45 48 22 32 28 35 69 32
39 -2 42 -1 27 11 -21 17 -24 47 -4 47 18 0 39 -26 34 -42 -3 -7 6 -21 18 -31
14 -11 23 -27 21 -40 -2 -19 2 -21 31 -19 24 3 32 0 32 -12 0 -9 6 -16 14 -16
16 0 29 -27 17 -35 -5 -2 -21 -44 -35 -92 -33 -106 -77 -202 -93 -203 -20 0
-20 23 0 90 11 36 22 80 24 98 3 18 9 35 14 38 13 8 11 92 -2 100 -19 11 -50
-37 -43 -67 2 -14 0 -46 -7 -70 -6 -24 -16 -78 -23 -119 -11 -71 -13 -75 -39
-78 -16 -2 -46 6 -67 17 -31 16 -41 17 -49 7 -8 -10 -8 -16 2 -25 8 -6 17 -8
20 -4 4 3 13 0 21 -6 8 -7 24 -10 34 -7 27 9 52 -3 52 -25 0 -11 6 -28 12 -39
16 -24 -4 -52 -23 -33 -6 6 -18 9 -26 6 -8 -3 -19 0 -24 8 -12 20 -40 -19 -34
-47 3 -12 -2 -35 -10 -51 -8 -16 -15 -54 -16 -84 -1 -71 -16 -129 -33 -129 -8
0 -16 -10 -18 -22 -6 -27 -4 -116 3 -138 2 -9 -2 -14 -10 -12 -11 2 -12 -6 -6
-45 10 -57 16 -229 10 -259 -5 -23 -37 -43 -34 -21 1 6 1 20 0 30 -2 28 -21 9
-21 -20 0 -20 -4 -24 -17 -18 -10 4 -25 8 -32 9 -8 2 -17 8 -19 14 -2 7 -12
12 -23 12 -10 0 -19 7 -19 15 0 8 -4 15 -10 15 -6 0 -8 -17 -5 -41 5 -37 4
-40 -10 -29 -8 7 -15 21 -15 32 0 11 -5 28 -11 40 -8 14 -7 28 1 49 8 19 9 33
2 42 -17 22 0 380 21 430 7 15 15 27 18 27 6 0 29 78 29 100 0 5 -13 -4 -28
-21 l-29 -32 -6 84 c-5 70 -4 207 2 282 1 10 9 17 24 17 21 1 21 1 -5 18 -32
19 -34 35 -13 76 8 15 15 36 15 46 0 12 7 17 25 15 14 -2 25 0 25 4 0 4 -11
13 -25 19 -20 9 -25 19 -25 49 0 21 7 60 15 87 8 28 13 57 10 65 -2 9 0 23 5
31 8 12 10 11 10 -7 0 -33 16 -28 24 7 5 25 10 30 35 30 16 0 33 -4 36 -10 9
-15 35 -12 35 4 0 8 -13 17 -30 21 -21 5 -30 13 -30 26 0 10 -4 19 -9 19 -5 0
-11 15 -15 32 l-6 33 -24 -39 -23 -39 -17 24 c-9 13 -16 31 -16 41 0 10 -7 18
-16 18 -10 0 -14 -6 -11 -15 4 -8 2 -17 -2 -19 -5 -3 -7 -42 -5 -86 3 -64 1
-82 -11 -86 -17 -7 -20 -34 -4 -34 14 0 7 -42 -7 -47 -6 -2 -14 5 -17 17 -3
11 -13 20 -22 20 -13 0 -15 -6 -10 -30 4 -19 3 -30 -4 -30 -6 0 -11 11 -11 25
0 14 -4 25 -9 25 -4 0 -17 -11 -27 -25 -10 -14 -24 -25 -31 -25 -7 0 -13 -7
-13 -15 0 -9 -7 -18 -15 -21 -24 -9 -17 -24 10 -24 14 0 25 6 25 13 0 20 44
14 48 -6 2 -12 -1 -15 -12 -11 -13 5 -15 0 -9 -27 3 -19 10 -35 15 -37 4 -2 8
-12 8 -22 0 -11 14 -40 31 -65 28 -41 31 -52 26 -96 -3 -26 -2 -51 2 -53 4 -3
6 -56 5 -118 -2 -62 -6 -167 -8 -233 -3 -115 2 -150 28 -167 8 -5 7 -8 -1 -8
-9 0 -13 -16 -13 -45 0 -27 -5 -45 -11 -45 -9 0 -10 -20 -6 -67 6 -56 4 -68
-11 -79 -14 -10 -15 -15 -4 -25 6 -7 12 -22 12 -32 0 -14 -4 -17 -17 -12 -10
4 -27 8 -38 9 -17 1 -20 -4 -17 -40 2 -29 -1 -43 -11 -47 -9 -3 -13 -14 -10
-31 7 -34 -20 -45 -47 -21 -11 10 -23 15 -27 12 -3 -4 -2 -7 3 -7 5 0 -4 -7
-20 -15 -15 -8 -35 -15 -42 -15 -8 0 -14 -7 -14 -15 0 -8 -3 -15 -7 -14 -9 0
-73 86 -73 97 0 4 -14 34 -30 65 -16 32 -30 64 -30 72 0 7 -6 15 -12 17 -19 7
-38 -2 -38 -18 0 -18 -14 -18 -30 1 -22 26 -22 101 -1 145 10 22 15 42 10 46
-15 9 -10 24 17 51 23 23 24 27 10 35 -24 14 -10 89 35 186 22 45 39 85 39 89
0 10 -31 -26 -64 -75 -17 -25 -35 -41 -42 -38 -8 3 -16 1 -19 -4 -4 -6 1 -10
9 -10 19 0 19 3 5 -79 -11 -66 -32 -125 -48 -135 -15 -10 -34 23 -29 49 3 15
-1 30 -11 39 -15 13 -16 10 -13 -32 6 -88 9 -102 25 -120 21 -23 24 -124 3
-141 -9 -8 -12 -26 -8 -61 6 -66 -17 -68 -48 -5 -17 34 -20 55 -16 87 l7 43
-22 -39 c-20 -37 -20 -41 -5 -67 9 -15 16 -32 16 -39 0 -6 11 -26 25 -45 33
-43 44 -102 21 -111 -9 -3 -23 0 -32 7 -14 11 -18 10 -30 -6 -8 -10 -14 -27
-14 -37 0 -24 -27 -23 -40 2 -6 11 -20 20 -30 20 -25 0 -26 35 -5 105 14 48
12 71 -5 60 -5 -3 -4 8 1 25 8 23 8 34 -1 45 -10 13 -10 19 4 33 22 25 20 49
-4 55 -18 5 -20 13 -19 72 1 43 7 71 16 81 13 12 12 15 -2 20 -14 6 -15 15
-10 55 6 41 4 49 -9 49 -9 0 -16 8 -16 20 0 18 -2 19 -20 8 -16 -10 -19 -20
-14 -44 9 -48 -21 -54 -57 -12 -16 18 -28 40 -29 47 0 12 -3 12 -12 3 -9 -9
-8 -16 4 -29 9 -10 30 -45 46 -78 24 -46 30 -73 30 -116 0 -30 2 -65 6 -76 5
-16 1 -26 -16 -37 -12 -9 -17 -16 -10 -16 7 0 12 -14 12 -36 0 -30 3 -35 17
-30 22 9 33 -11 26 -46 -3 -15 -1 -34 5 -41 11 -13 22 -197 12 -197 -3 0 -10
4 -16 10 -6 6 -21 6 -42 0 -26 -7 -34 -6 -39 6 -12 32 -24 12 -17 -31 5 -35 3
-45 -8 -45 -8 0 -19 5 -25 11 -15 15 -36 1 -30 -21 4 -14 1 -15 -19 -6 -13 6
-25 19 -28 28 -2 10 -11 18 -20 18 -13 0 -15 -6 -10 -26 5 -19 4 -25 -5 -20
-6 4 -11 16 -11 27 0 10 -6 19 -13 19 -8 0 -20 11 -27 25 -11 21 -11 27 3 43
21 23 22 42 3 42 -41 0 -23 69 29 120 41 40 44 56 10 64 -18 5 -25 13 -25 31
0 14 -9 30 -19 37 -14 9 -17 16 -10 25 17 20 7 58 -14 55 -24 -4 -47 15 -47
39 0 22 -18 25 -26 5 -6 -16 17 -66 40 -85 22 -18 22 -126 1 -135 -10 -3 -17
3 -21 20 -6 22 -8 23 -18 8 -10 -13 -17 -14 -33 -5 -18 9 -20 8 -16 -8 3 -13
-2 -21 -17 -26 -21 -7 -50 9 -50 27 0 5 -9 18 -20 30 -11 12 -20 34 -20 49 0
29 -15 48 -22 27 -7 -20 -26 0 -33 35 -13 63 -15 67 -45 67 -25 0 -28 4 -26
25 1 14 6 28 9 32 4 3 0 17 -8 29 -24 37 -5 71 44 79 46 8 64 24 51 45 -8 12
-10 12 -15 -2 -4 -9 -13 -14 -21 -11 -11 4 -11 9 0 31 8 15 23 36 35 46 21 19
22 19 51 -9 33 -31 39 -28 14 9 -14 23 -13 26 11 50 14 14 30 26 35 26 4 0 10
5 12 11 5 15 75 1 82 -17 6 -16 -39 -38 -56 -28 -5 3 -12 -3 -15 -14 -2 -11
-14 -23 -26 -26 -15 -4 -19 -8 -11 -16 16 -16 54 2 99 45 33 33 41 36 58 26
14 -9 22 -10 30 -2 22 22 47 11 67 -28 22 -43 35 -55 50 -46 5 3 -6 28 -25 55
-19 28 -35 55 -35 60 0 6 -8 20 -19 31 -16 17 -20 18 -30 5 -7 -8 -10 -19 -7
-24 7 -12 -55 -25 -63 -14 -3 4 -18 13 -33 19 -16 7 -28 18 -28 24 0 8 -5 7
-16 -2 -13 -10 -20 -9 -46 5 -25 15 -32 16 -39 5 -5 -8 -4 -15 2 -18 6 -2 4
-10 -4 -20 -8 -9 -17 -25 -20 -36 -3 -13 -5 -8 -6 13 -1 32 25 92 40 92 13 0
3 81 -11 90 -23 14 -28 3 -17 -39 6 -22 8 -44 4 -47 -4 -4 -23 6 -43 22 -41
33 -86 146 -66 166 8 8 15 6 27 -6 21 -20 32 -20 43 1 9 15 11 15 26 1 8 -9
21 -18 27 -20 6 -2 11 -19 12 -38 2 -31 6 -36 37 -45 24 -7 41 -22 56 -48 11
-21 31 -45 44 -54 21 -15 22 -15 15 6 -4 13 -2 28 5 36 10 13 8 15 -13 15 -18
0 -34 11 -54 39 -15 22 -38 45 -50 50 -13 6 -23 17 -23 26 0 8 -4 15 -8 15 -4
0 -16 15 -27 33 -10 17 -25 37 -33 43 -10 7 -13 23 -10 47 4 40 -6 51 -15 16
-5 -17 -9 -19 -26 -10 -23 13 -21 44 5 114 19 50 18 78 -1 71 -8 -3 -17 -21
-21 -40 -7 -37 -24 -47 -24 -13 0 11 -7 27 -15 36 -9 8 -13 23 -10 33 9 30 13
130 5 130 -4 0 -6 14 -4 32 2 17 -1 37 -7 44 -6 8 -7 23 -3 36 4 13 7 36 5 51
-1 27 0 28 30 22 28 -6 30 -5 24 14 -9 30 8 26 33 -9 13 -16 28 -30 35 -30 7
0 19 -20 26 -46 7 -25 20 -51 27 -59 8 -7 14 -21 14 -30 0 -14 -6 -16 -37 -10
-21 4 -44 16 -51 26 -13 18 -16 19 -31 5 -13 -12 -20 -13 -29 -4 -9 9 -12 6
-12 -16 0 -26 2 -28 30 -23 16 4 32 2 35 -3 4 -6 17 -7 30 -4 16 4 37 -1 61
-15 19 -12 39 -19 44 -16 5 3 12 -4 15 -16 5 -13 2 -25 -6 -30 -7 -4 -10 -11
-6 -15 4 -4 2 -13 -4 -20 -16 -19 -1 -36 29 -33 35 4 73 -18 108 -60 31 -38
78 -177 78 -233 0 -23 5 -38 12 -38 14 0 27 -28 18 -41 -3 -5 -2 -15 3 -21 11
-18 14 -36 18 -93 2 -27 9 -51 14 -53 6 -2 11 -19 11 -38 0 -19 5 -34 11 -34
7 0 9 10 4 28 -4 15 -11 52 -15 82 -14 91 -57 260 -71 276 -11 14 -10 18 4 29
15 10 15 14 3 24 -8 6 -17 27 -20 46 -4 19 -11 35 -15 35 -5 0 -6 12 -3 27 4
22 2 25 -12 20 -24 -9 -56 10 -56 33 0 10 -7 23 -16 28 -13 7 -16 19 -11 51 5
39 -5 62 -18 41 -11 -18 -23 -11 -30 17 -3 15 -15 33 -27 41 -12 9 -18 22 -15
33 3 11 1 19 -4 19 -5 0 -9 -6 -9 -12 -1 -20 -40 32 -40 52 0 9 9 25 20 35 23
21 26 35 6 35 -7 0 -16 -9 -19 -20 -3 -11 -9 -20 -14 -20 -13 0 -83 97 -83
115 0 8 -4 15 -10 15 -5 0 -10 -4 -10 -9 0 -13 -29 -41 -42 -41 -5 0 -7 7 -4
15 3 9 -1 18 -10 22 -11 4 -13 13 -9 34 5 24 4 28 -9 23 -17 -7 -21 6 -17 64
2 23 -2 32 -13 32 -10 0 -16 -9 -16 -22 0 -12 -7 -30 -17 -40 -11 -13 -12 -18
-3 -18 9 0 9 -4 2 -12 -5 -7 -8 -23 -6 -35 3 -17 -1 -23 -16 -23 -10 0 -28
-10 -39 -22 -17 -17 -23 -19 -35 -9 -9 7 -14 18 -13 24 1 7 -5 12 -13 12 -9 0
-16 -11 -18 -26 -2 -15 -14 -37 -28 -50 l-24 -22 0 36 c0 19 5 48 10 63 6 16
7 30 2 33 -15 10 -22 83 -10 98 8 10 4 13 -22 13 -30 0 -32 -2 -26 -26 10 -39
-2 -66 -27 -62 -14 2 -22 -2 -22 -12 0 -23 -19 -27 -24 -5 -2 11 -10 24 -18
31 -13 8 -13 15 -4 32 15 28 7 42 -25 42 -14 0 -23 -4 -20 -9 4 -5 -7 -15 -24
-23 -33 -14 -38 -26 -15 -34 20 -8 19 -76 -1 -129 -9 -22 -16 -48 -16 -57 1
-21 -58 -89 -70 -82 -4 3 -8 -2 -8 -11 0 -11 5 -15 14 -12 10 4 12 0 9 -13 -3
-11 -14 -22 -24 -25 -10 -4 -18 -11 -16 -17 1 -6 -3 -12 -10 -15 -7 -3 -14 10
-18 34 -11 63 -14 70 -26 53 -7 -11 -8 -5 -3 19 5 28 4 33 -9 28 -18 -7 -42
17 -32 33 3 5 15 10 25 10 13 0 17 5 14 14 -3 8 -12 12 -20 9 -8 -3 -14 -1
-14 5 0 10 -42 8 -60 -3 -9 -5 -10 -1 -5 14 7 23 -2 27 -25 8 -18 -14 -42 -87
-30 -87 5 0 12 5 15 10 9 15 25 12 25 -5 0 -20 -52 -54 -58 -37 -2 7 -8 10
-13 6 -5 -3 -9 3 -9 13 0 15 -2 15 -9 3 -6 -8 -7 -18 -5 -22 3 -4 -10 -6 -28
-4 -18 3 -38 5 -45 5 -14 1 -12 81 2 81 6 0 3 5 -5 10 -12 7 -12 12 -2 22 6 6
12 19 12 28 -1 23 -30 -18 -30 -42 0 -10 -10 -22 -22 -27 -43 -16 -51 11 -17
50 11 13 24 29 27 34 11 17 61 35 67 25 8 -13 25 -13 25 0 0 6 -10 14 -22 19
-22 8 -22 8 5 26 15 10 30 15 34 12 6 -6 32 21 33 34 0 3 -13 4 -30 1 -23 -3
-30 0 -30 12 0 17 -37 36 -71 36 -10 0 -18 -5 -17 -11 2 -6 -3 -14 -9 -16 -7
-3 -13 2 -13 11 0 14 -39 16 -370 16 -354 0 -370 -1 -380 -19 -5 -11 -7 -26
-4 -35 4 -11 0 -13 -16 -9 -30 8 -37 33 -15 49 18 13 18 14 -3 14 -14 0 -22
-6 -22 -17 -1 -17 -1 -17 -14 -1 -12 16 -70 17 -814 18 l-802 0 0 -4800z
m3045 4675 c1 -11 -4 -24 -10 -28 -5 -5 1 -6 15 -3 14 3 30 6 37 6 6 0 15 9
18 20 8 26 25 16 25 -15 0 -29 -19 -43 -31 -24 -6 10 -9 7 -9 -10 0 -14 -7
-32 -16 -42 -15 -16 -14 -19 15 -34 37 -19 45 -65 11 -65 -11 0 -20 -6 -20
-12 0 -23 16 -39 32 -33 11 4 17 -1 20 -19 6 -28 -9 -36 -18 -11 -12 30 -26
15 -20 -19 4 -20 2 -37 -4 -41 -5 -3 -10 1 -10 11 0 13 -3 14 -15 4 -12 -10
-15 -9 -15 6 0 11 -7 28 -15 38 -10 14 -12 22 -4 26 14 10 23 90 9 90 -6 0
-15 -11 -20 -24 -5 -13 -13 -27 -18 -30 -20 -12 -22 28 -7 127 8 55 15 102 15
104 0 3 8 3 18 1 9 -2 17 -12 17 -23z m2865 -123 c0 -5 11 -14 24 -20 18 -8
28 -7 43 3 18 12 26 11 64 -9 34 -18 45 -30 47 -52 2 -16 12 -40 23 -55 23
-32 46 -132 32 -136 -6 -2 -19 -10 -29 -18 -18 -14 -18 -14 4 -15 29 0 37 -22
20 -52 -7 -13 -13 -30 -13 -38 0 -9 -11 -16 -27 -18 -23 -3 -28 1 -28 17 0 12
-7 21 -15 21 -8 0 -12 6 -9 14 4 11 0 13 -15 9 -17 -4 -21 -1 -21 18 0 19 2
21 10 9 8 -13 10 -12 10 3 0 9 -7 17 -15 17 -17 0 -20 25 -5 35 6 4 8 11 4 16
-7 11 -56 32 -63 27 -5 -3 -12 -53 -12 -83 0 -19 -1 -19 -13 -2 -13 16 -14 16
-28 -5 -14 -22 -16 -22 -41 -5 -15 9 -33 17 -40 17 -8 0 -17 8 -20 19 -3 14
-14 18 -47 18 l-43 0 24 -18 c13 -10 29 -19 36 -19 11 0 43 -38 43 -51 0 -4
-12 -10 -27 -14 -21 -5 -24 -8 -12 -16 11 -7 10 -9 -6 -9 -11 0 -15 -4 -10 -8
11 -8 14 -77 3 -87 -13 -13 -38 4 -38 25 0 12 -10 31 -23 43 -13 12 -33 43
-45 70 -22 47 -42 62 -42 31 0 -24 -25 -11 -28 15 -3 16 0 21 9 16 7 -5 17 -2
23 7 6 9 20 17 31 20 14 2 19 10 17 26 -2 16 2 22 17 22 11 0 25 9 32 21 7 13
17 19 29 16 19 -5 30 10 30 39 0 8 10 29 22 48 l22 33 18 -21 c9 -11 17 -16
18 -9 0 6 -4 15 -10 18 -5 3 -10 15 -10 26 0 11 5 17 10 14 6 -3 10 -2 10 2 0
5 10 13 23 19 29 15 37 16 37 6z m-3180 -67 c0 -9 7 -18 15 -21 13 -5 28 -35
30 -59 0 -5 8 -9 18 -7 9 2 17 -1 16 -5 -5 -30 5 -51 34 -67 17 -11 34 -20 37
-21 27 -8 40 -20 40 -36 0 -16 -8 -19 -52 -19 -31 1 -61 7 -72 15 -19 14 -18
15 13 21 20 4 28 10 21 14 -7 4 -9 13 -6 19 12 19 -8 12 -44 -14 -37 -27 -66
-32 -73 -12 -3 8 -9 6 -20 -8 -13 -16 -18 -18 -28 -7 -7 6 -23 12 -36 12 -13
0 -23 5 -23 11 0 5 4 8 9 5 5 -3 14 1 21 9 10 12 10 15 -1 15 -12 0 -12 2 0 9
10 7 8 11 -10 16 -13 4 -27 12 -30 18 -7 10 74 87 91 87 5 0 12 9 15 20 7 23
35 27 35 5z m674 -47 c3 -15 2 -30 -4 -33 -14 -9 -12 -31 3 -47 17 -16 20 -75
5 -84 -6 -4 -8 1 -3 15 4 12 2 21 -4 21 -6 0 -11 6 -11 13 0 7 -9 18 -20 25
-17 10 -20 10 -20 -4 0 -9 8 -23 18 -30 16 -13 16 -15 0 -28 -10 -7 -18 -18
-18 -24 0 -15 -38 -35 -51 -26 -6 3 -7 9 -3 13 17 12 34 51 33 73 0 13 -3 18
-5 11 -3 -7 -11 -10 -18 -7 -8 3 -18 -8 -26 -25 -25 -61 -45 -26 -29 50 6 27
8 57 5 65 -3 9 1 22 9 30 17 17 19 12 15 -39 -1 -15 2 -27 7 -26 4 1 17 -2 27
-6 22 -9 43 13 52 55 13 60 25 63 38 8z m-544 -223 c13 -11 21 -11 49 1 40 17
41 17 41 4 0 -5 -7 -10 -15 -10 -8 0 -15 -4 -15 -10 0 -5 7 -7 16 -3 14 5 15
1 9 -25 -4 -21 -3 -32 4 -32 6 0 11 -14 11 -31 0 -24 -4 -30 -17 -27 -10 2
-17 10 -15 17 1 7 -7 15 -18 18 -11 3 -20 13 -21 22 0 10 -2 11 -6 4 -2 -7
-12 -13 -21 -13 -12 0 -13 -3 -4 -12 19 -19 14 -28 -13 -28 -16 0 -25 -6 -25
-16 0 -11 5 -14 16 -10 11 4 18 -1 21 -14 4 -14 12 -19 27 -16 80 16 86 16 86
-4 0 -21 -15 -27 -25 -10 -4 6 -22 3 -47 -7 -31 -12 -43 -14 -46 -5 -6 18 -72
15 -72 -3 0 -8 5 -15 10 -15 6 0 10 -7 10 -15 0 -18 14 -19 39 -3 13 8 26 9
40 2 18 -8 18 -11 6 -28 -11 -15 -17 -16 -29 -7 -11 9 -15 7 -20 -14 -7 -29
-23 -33 -28 -7 -3 12 -9 6 -22 -21 -24 -48 -32 -41 -11 8 18 45 15 51 -17 34
-12 -7 -30 -15 -38 -19 -8 -4 -14 -14 -12 -22 1 -9 -4 -20 -11 -27 -11 -8 -19
-5 -37 14 -13 14 -20 25 -16 25 4 0 -2 14 -14 30 -17 24 -26 29 -46 24 -15 -4
-24 -2 -24 6 0 6 -4 8 -10 5 -5 -3 -10 -16 -10 -27 0 -33 -11 -13 -15 26 -3
34 3 41 29 37 4 -1 14 3 20 9 15 12 26 3 26 -21 0 -25 36 -30 56 -8 11 13 13
19 5 19 -7 0 -11 6 -8 13 2 7 20 12 43 12 33 0 39 3 42 23 3 20 8 23 28 18 24
-6 33 7 14 19 -9 6 -53 -4 -94 -21 -12 -4 -17 -4 -13 2 9 15 -38 11 -57 -5
-13 -11 -19 -12 -25 -3 -4 6 -17 10 -29 7 -19 -3 -21 -1 -12 15 15 27 31 35
41 19 6 -10 9 -6 9 13 0 50 52 74 102 47 19 -10 20 -9 15 11 -4 16 -1 24 14
27 10 3 19 12 19 20 0 12 9 14 48 8 26 -4 54 -13 62 -20z m491 -1 c-12 -15
-21 -33 -21 -41 0 -9 -5 -11 -12 -7 -7 4 -10 4 -6 -1 4 -4 3 -14 -3 -22 -14
-16 3 -17 19 -1 10 10 15 10 22 -2 12 -20 23 -6 23 30 0 17 3 26 7 20 4 -7 10
3 14 22 5 25 9 30 16 18 6 -9 5 -17 -2 -21 -8 -5 -9 -11 -1 -21 16 -20 24 -66
13 -73 -6 -3 -7 -17 -4 -30 3 -13 1 -33 -6 -44 -12 -23 -39 -29 -41 -8 0 6 -1
28 -2 47 -2 26 -7 35 -22 38 -16 2 -17 1 -6 -7 13 -8 11 -13 -10 -30 -41 -34
-50 -28 -44 32 10 88 14 96 48 111 17 8 33 15 35 15 2 1 -6 -11 -17 -25z
m2268 -36 c43 -59 41 -76 -11 -85 l-43 -7 33 -8 c26 -7 32 -13 32 -36 0 -49
-11 -72 -34 -72 -11 0 -36 -9 -54 -20 -35 -21 -59 -25 -80 -11 -11 7 -10 16 7
50 11 23 18 48 15 56 -3 7 -1 16 5 19 6 4 8 13 5 21 -3 7 3 22 13 32 10 10 19
31 19 46 4 67 49 75 93 15z m254 -15 c16 1 23 -4 25 -21 3 -22 5 -22 16 -6 18
24 46 11 46 -21 0 -29 -23 -43 -43 -26 -15 12 -37 -3 -37 -26 0 -16 12 -17 27
-2 29 29 45 -30 19 -67 -17 -22 -33 -12 -38 26 -3 22 -6 20 -26 -23 -14 -31
-20 -57 -17 -75 6 -25 5 -25 -6 -7 -7 11 -16 23 -21 26 -13 8 -48 81 -48 100
0 10 13 20 32 25 38 11 48 33 19 41 l-21 5 21 29 c14 20 16 29 7 29 -9 0 -9 3
2 10 11 7 16 5 18 -5 2 -8 13 -14 25 -12z m140 -134 c-3 -19 -1 -29 6 -29 7 0
9 5 6 10 -3 6 1 10 10 10 12 0 15 -5 11 -16 -3 -9 -6 -26 -6 -39 0 -13 -12
-38 -26 -55 -15 -17 -24 -34 -20 -37 3 -4 6 -1 6 6 0 7 4 9 10 6 13 -8 -10
-44 -25 -39 -6 3 -19 18 -29 34 -9 17 -22 28 -27 25 -5 -4 -9 1 -9 9 0 9 4 16
8 16 5 0 9 14 9 32 0 18 5 34 11 36 7 2 12 11 12 20 0 22 29 52 46 45 9 -3 11
-14 7 -34z m-321 -25 c8 -18 17 -24 31 -20 22 5 57 -26 57 -52 0 -38 -23 -54
-71 -49 -84 10 -86 12 -68 97 12 56 32 66 51 24z m-2718 -98 c3 -11 0 -26 -5
-32 -12 -14 -3 -54 12 -54 5 0 9 -11 9 -24 0 -14 4 -27 10 -31 5 -3 7 -12 4
-19 -3 -8 -1 -17 5 -21 18 -10 13 -38 -5 -31 -11 4 -19 -2 -27 -23 -12 -32
-65 -65 -90 -55 -11 4 -17 1 -17 -9 0 -16 8 -16 58 -1 18 5 22 2 22 -14 0 -11
6 -23 13 -25 6 -3 -2 -11 -19 -18 -29 -11 -71 -75 -59 -88 3 -2 5 1 5 7 0 7 4
12 9 12 4 0 25 16 46 35 20 20 40 33 43 30 3 -3 0 -11 -6 -17 -7 -7 -12 -26
-12 -42 0 -50 -10 -73 -37 -85 -19 -9 -22 -15 -14 -25 13 -15 5 -26 -21 -26
-10 0 -18 7 -18 15 0 8 5 15 10 15 16 0 12 27 -5 34 -8 3 -15 16 -15 28 0 13
-12 37 -26 53 -22 25 -25 26 -20 9 7 -22 -14 -54 -35 -54 -5 0 -9 -8 -9 -18 0
-28 -36 -66 -56 -58 -12 4 -15 2 -11 -9 4 -8 2 -17 -3 -20 -6 -4 -10 -15 -10
-25 0 -19 -38 -53 -50 -45 -12 7 5 80 18 77 17 -3 15 14 -4 44 -14 21 -15 31
-5 65 14 47 66 109 91 109 10 0 21 7 24 16 5 13 14 15 41 10 38 -8 46 2 16 21
-15 9 -23 9 -37 -2 -11 -8 -26 -15 -35 -15 -15 0 -15 3 0 35 9 19 22 34 29 35
7 0 11 4 8 9 -3 5 6 17 21 26 l26 18 -26 14 c-29 15 -36 33 -13 33 7 0 21 11
30 25 10 14 28 31 42 37 13 6 24 19 24 28 0 10 9 20 21 23 15 4 19 11 14 26
-5 15 -2 20 14 18 11 0 22 -10 25 -21z m2496 -25 c0 -5 -7 -14 -15 -21 -8 -7
-15 -21 -15 -31 0 -12 5 -16 15 -13 8 4 15 11 15 18 0 8 20 12 56 13 49 1 56
-1 66 -22 8 -18 8 -28 -1 -39 -8 -10 -9 -21 -3 -32 6 -10 5 -37 -3 -75 -7 -32
-10 -70 -8 -83 3 -14 0 -48 -7 -75 -6 -28 -14 -103 -16 -168 -6 -184 -11 -215
-32 -233 -22 -18 -36 -48 -33 -72 1 -11 -4 -18 -14 -18 -13 0 -16 6 -11 24 5
19 1 26 -13 31 -19 6 -71 73 -71 92 0 21 32 73 46 73 8 0 14 5 14 11 0 6 7 17
15 25 17 18 20 34 5 34 -5 0 -10 -4 -10 -9 0 -5 -11 -12 -25 -15 -16 -4 -23
-11 -19 -18 4 -7 3 -8 -4 -4 -17 10 -15 26 3 26 10 0 15 10 15 28 2 85 12 136
35 172 27 42 35 78 10 46 -8 -10 -16 -24 -18 -30 -3 -8 -9 -7 -20 2 -23 19
-33 9 -40 -40 -3 -24 -9 -63 -12 -88 -12 -86 -14 -92 -36 -87 -17 5 -19 2 -14
-26 7 -39 -21 -115 -37 -99 -14 14 9 266 31 337 5 17 12 47 15 67 4 21 17 49
30 63 14 15 22 33 19 44 -6 24 13 61 32 61 17 0 21 56 5 62 -5 2 -7 19 -3 41
5 31 10 37 29 37 13 0 24 -4 24 -9z m199 -123 c11 -11 12 -10 6 2 -6 11 -5 12
3 5 15 -14 32 -137 21 -151 -4 -5 -6 -20 -2 -32 3 -14 1 -22 -8 -22 -19 0 -49
-31 -49 -50 0 -19 -27 -46 -37 -37 -5 6 7 47 29 94 6 13 7 33 2 50 -9 33 -14
110 -7 136 5 20 23 22 42 5z m1721 -78 c4 0 10 7 14 15 8 22 29 18 23 -4 -3
-14 -1 -18 10 -14 9 4 20 -1 25 -11 6 -11 16 -14 34 -10 14 4 24 2 24 -5 0 -6
8 -11 17 -11 13 0 14 -3 5 -12 -9 -9 -15 -8 -26 8 -8 10 -18 15 -22 11 -5 -4
-4 -11 2 -15 6 -4 13 -14 16 -23 5 -11 15 -15 35 -13 15 2 22 1 15 -2 -10 -5
-9 -9 5 -20 17 -13 17 -13 1 -14 -39 0 -15 -15 27 -17 27 -1 45 3 45 9 0 6 9
1 20 -12 15 -17 17 -26 9 -36 -8 -10 -8 -15 2 -18 27 -9 99 -11 101 -4 5 14
83 -13 101 -35 l18 -22 -10 22 c-16 31 -14 34 14 23 24 -9 25 -8 19 18 -4 20
-3 23 5 12 9 -13 13 -12 31 8 23 24 65 30 73 10 4 -10 8 -10 15 1 6 8 17 11
26 8 11 -4 16 -1 16 11 0 14 2 15 10 2 14 -23 23 -4 10 21 -11 20 -10 21 6 14
11 -5 31 -8 47 -8 32 0 36 -13 7 -22 -11 -3 -20 -11 -20 -16 0 -12 17 -12 25
1 3 5 12 7 21 3 12 -4 14 0 8 22 -5 21 -4 26 5 20 7 -4 11 -21 9 -37 -2 -25 2
-32 21 -40 24 -9 24 -8 7 11 -10 11 -16 26 -13 33 3 8 6 6 6 -6 1 -18 2 -18
21 -1 19 17 20 17 20 1 0 -9 4 -14 10 -11 6 3 7 -1 4 -9 -3 -9 -11 -16 -17
-16 -6 0 -1 -9 10 -19 21 -20 40 -102 28 -121 -3 -5 -1 -10 4 -10 6 0 11 5 11
10 0 6 4 10 8 10 5 0 9 -7 9 -15 0 -9 -10 -15 -23 -15 -23 0 -40 -15 -27 -23
15 -10 63 5 63 19 0 8 7 14 15 14 9 0 12 -6 9 -15 -4 -9 0 -15 7 -15 8 -1 21
-16 30 -34 14 -31 14 -35 -1 -54 -16 -19 -18 -20 -35 -4 -16 16 -17 16 -10 -5
10 -36 -38 -31 -75 7 -16 17 -31 30 -34 30 -2 0 -6 -14 -8 -31 -4 -28 -3 -30
21 -25 14 3 20 3 14 0 -9 -4 -8 -12 5 -32 9 -15 21 -31 27 -35 7 -6 6 -10 -3
-14 -6 -2 -10 -9 -7 -14 4 -5 12 -3 20 4 9 8 10 16 3 24 -5 7 -8 20 -5 30 4
16 6 15 12 -4 4 -13 11 -23 16 -23 10 0 12 -73 3 -83 -10 -9 -34 4 -34 19 0 8
-4 14 -10 14 -5 0 -10 -7 -10 -15 0 -8 5 -15 10 -15 6 0 10 -5 10 -11 0 -6 -6
-9 -13 -6 -8 3 -14 -3 -14 -14 -1 -11 5 -19 13 -19 8 0 14 -4 14 -10 0 -5 -9
-10 -20 -10 -12 0 -20 -7 -20 -18 0 -10 -14 -23 -32 -31 -18 -8 -44 -27 -58
-43 -13 -15 -30 -28 -37 -28 -7 0 -13 -7 -13 -16 0 -8 -4 -12 -10 -9 -10 6
-12 0 -14 -40 -1 -14 -7 -19 -20 -17 -15 3 -18 -1 -14 -23 5 -22 3 -25 -16
-19 -11 4 -24 12 -28 18 -4 6 -8 -1 -8 -16 0 -16 -3 -28 -7 -29 -5 0 -21 -2
-38 -4 -19 -3 -25 -1 -16 4 7 5 9 11 5 13 -16 8 -64 2 -76 -10 -17 -17 -28
-15 -22 3 5 11 -3 17 -25 21 -17 4 -31 11 -31 16 0 6 -6 8 -14 5 -10 -4 -12 0
-8 15 4 16 1 20 -9 16 -18 -7 -44 44 -35 67 3 8 1 25 -4 37 -8 21 -9 21 -10 3
l-1 -20 -11 20 c-12 19 -13 18 -19 -10 -5 -24 -7 -18 -8 25 -1 30 -5 50 -9 43
-9 -14 -7 -189 3 -223 5 -19 4 -22 -4 -10 -8 12 -11 7 -11 -21 0 -21 -8 -45
-20 -59 -22 -25 -41 -21 -20 4 10 13 9 19 -4 31 -20 20 -20 20 0 50 9 14 13
32 10 42 -5 13 -9 14 -15 5 -5 -9 -14 -9 -40 1 -28 10 -34 10 -42 -6 -6 -9
-15 -17 -21 -17 -6 0 -20 -8 -30 -17 -19 -17 -19 -16 -13 12 4 20 3 26 -3 17
-5 -8 -12 -12 -16 -10 -4 1 -14 -8 -21 -22 -13 -22 -14 -23 -15 -5 0 16 -2 17
-9 6 -5 -8 -7 -21 -3 -29 3 -10 1 -13 -6 -8 -6 3 -15 -2 -21 -11 -6 -10 -11
-12 -11 -5 0 7 -13 12 -29 12 -17 0 -33 5 -37 12 -4 7 -3 8 4 4 7 -4 12 -1 12
8 0 9 -7 16 -15 16 -8 0 -15 -9 -15 -20 0 -15 -7 -20 -27 -20 -21 0 -24 3 -15
12 19 19 14 28 -15 27 -16 0 -22 -3 -15 -6 29 -11 8 -21 -42 -20 -42 2 -51 4
-37 12 28 15 13 35 -25 35 -28 0 -34 -4 -35 -22 0 -22 -1 -22 -11 2 l-11 25
-7 -25 c-8 -24 -8 -24 -9 -2 -1 25 -11 28 -29 10 -9 -9 -12 -9 -12 0 0 7 -7
12 -15 12 -13 0 -14 -4 -5 -20 9 -16 8 -18 -5 -14 -8 4 -15 10 -15 14 0 5 -3
16 -7 26 -5 15 -2 16 30 11 21 -3 37 -2 37 4 0 5 -5 9 -10 9 -7 0 -7 6 0 19 5
11 10 26 9 33 0 7 -4 3 -10 -10 -11 -28 -43 -26 -46 3 -3 20 -3 20 7 0 7 -16
9 -13 8 18 -2 30 -6 37 -23 37 -17 0 -18 -2 -5 -11 11 -8 9 -9 -10 -3 -24 6
-24 6 -7 -13 9 -11 17 -26 17 -34 0 -8 -6 -5 -16 9 -21 30 -35 28 -29 -5 3
-16 2 -22 -1 -15 -3 6 -12 12 -20 12 -8 0 -14 2 -14 4 0 11 48 56 59 56 8 0
10 8 6 20 -4 11 -2 20 4 20 6 0 11 -5 11 -11 0 -5 5 -7 10 -4 8 5 7 12 -2 22
-7 9 -12 24 -10 35 2 13 -3 18 -17 18 -26 0 -26 10 -1 43 11 14 20 28 20 32 0
4 -9 5 -20 2 -12 -3 -20 0 -20 7 0 13 34 15 46 3 16 -16 35 -7 29 13 -5 15 -2
20 14 20 11 0 27 12 38 30 9 17 23 30 31 30 22 0 42 27 36 47 -4 13 -3 14 4 5
5 -8 18 -13 28 -12 36 4 50 -1 29 -10 -19 -8 -19 -9 2 -9 12 -1 23 -7 26 -13
2 -7 3 -5 1 5 -1 10 5 26 14 36 25 26 25 42 2 48 -11 3 -17 9 -14 14 3 5 -2 6
-10 3 -22 -8 -20 -21 4 -29 11 -4 18 -11 14 -16 -4 -6 -13 -4 -25 6 -15 14
-24 15 -48 7 -38 -13 -61 7 -36 31 18 18 6 30 -28 26 -12 -2 -28 0 -34 4 -9 6
-13 2 -13 -11 0 -15 -6 -19 -29 -18 -16 1 -33 4 -37 8 -7 8 14 32 36 41 12 4
12 6 -2 6 -9 1 -23 -5 -30 -12 -7 -7 -26 -22 -42 -35 -16 -12 -24 -22 -17 -22
6 0 11 -7 11 -15 0 -8 7 -15 15 -15 18 0 19 12 4 27 -7 7 -6 12 5 16 9 4 16 2
16 -4 0 -6 12 -9 27 -7 15 2 28 -2 30 -9 3 -7 0 -13 -6 -13 -6 0 -10 -11 -9
-25 3 -30 6 -31 29 -3 11 11 19 17 19 12 0 -15 -14 -30 -37 -43 -37 -19 -46
-14 -39 23 4 19 2 37 -3 40 -12 8 -22 -19 -15 -41 5 -14 4 -15 -4 -4 -10 14
-36 6 -27 -9 3 -4 -2 -10 -10 -14 -9 -3 -15 0 -15 9 0 8 5 15 10 15 17 0 11
27 -7 35 -33 14 -54 12 -64 -7 -16 -29 -65 -24 -82 10 -11 24 -11 30 0 41 12
11 9 18 -19 42 -30 28 -34 29 -45 13 -8 -11 -13 -13 -13 -5 0 7 7 19 15 27 8
9 15 11 15 5 0 -6 7 -11 15 -11 20 0 19 30 -1 45 -20 14 -8 39 21 43 29 4 57
10 82 17 16 5 28 0 46 -19 23 -25 57 -28 57 -4 0 5 4 6 10 3 6 -4 7 1 3 11 -4
12 -3 15 5 10 19 -11 14 5 -5 21 -14 10 -14 13 -3 11 8 -2 14 2 13 9 -1 6 11
14 27 18 28 6 43 25 20 25 -16 0 12 38 32 43 20 6 25 -18 6 -26 -10 -4 -10 -8
1 -15 10 -7 21 -6 37 4 28 19 39 45 22 56 -7 4 -8 8 -2 8 5 0 15 -5 22 -12 9
-9 12 -8 12 5 0 22 17 22 22 0 3 -12 9 -4 16 21 6 22 8 44 5 49 -7 12 7 4 61
-35 21 -15 44 -28 50 -28 6 0 -1 8 -14 17 -36 25 -42 37 -20 45 11 4 20 12 20
18 0 5 20 10 44 10 34 0 46 -4 49 -17 3 -11 6 -7 7 12 l3 30 4 -27 c2 -16 8
-28 13 -28z m-5874 -115 c-3 -8 0 -15 6 -17 19 -7 -3 -30 -23 -25 -15 4 -19 0
-19 -19 0 -13 5 -24 10 -24 6 0 10 7 10 15 0 16 1 17 47 21 28 2 33 -1 38 -27
14 -62 -19 -89 -86 -72 -27 7 -34 14 -34 34 0 17 -6 24 -20 24 -17 0 -20 7
-20 40 0 37 2 39 30 40 24 0 30 4 28 20 -1 11 4 23 10 27 14 9 31 -18 23 -37z
m4213 -224 c10 -76 -14 -180 -43 -183 -12 0 -26 -2 -33 -2 -6 -1 -20 -9 -31
-19 -19 -17 -20 -17 -37 10 -16 24 -17 34 -7 83 7 31 12 68 12 83 0 15 5 27
11 27 8 0 9 15 5 45 -4 26 -3 45 2 45 5 0 15 14 22 30 10 25 15 28 27 18 12
-10 17 -8 26 7 10 18 13 13 25 -35 8 -30 17 -79 21 -109z m-2235 -116 c14 -10
20 -28 21 -57 1 -29 6 -43 18 -47 15 -6 15 -9 2 -35 -17 -33 -11 -49 16 -41
13 4 19 2 19 -8 0 -8 10 -22 23 -30 21 -13 24 -13 33 0 9 14 12 14 27 -1 9
-10 17 -26 17 -37 0 -11 5 -17 10 -14 16 10 12 -5 -12 -37 -19 -28 -20 -31 -5
-40 25 -14 21 -40 -12 -70 l-29 -28 -41 18 c-39 16 -41 19 -41 62 1 42 2 44
15 26 8 -11 13 -28 9 -38 -7 -22 9 -24 26 -3 10 11 6 23 -21 60 -20 28 -38 44
-47 40 -7 -3 -16 -5 -18 -5 -2 0 -4 -12 -4 -27 0 -25 -1 -26 -13 -8 -10 12
-16 14 -21 7 -4 -7 -5 -16 -2 -21 3 -5 -1 -14 -8 -20 -11 -10 -16 -7 -22 11
-4 13 -7 29 -5 37 2 9 -4 12 -18 8 -14 -3 -21 0 -21 9 0 8 -4 14 -10 14 -16 0
-12 31 6 51 16 17 15 19 -11 29 -22 8 -26 15 -21 33 3 12 6 27 6 33 0 7 10 12
23 12 39 1 76 7 82 14 11 11 -5 48 -21 48 -17 0 -14 31 5 54 16 19 21 19 45 1z
m927 -105 c1 -14 -2 -33 -6 -42 -5 -13 -3 -18 8 -18 8 0 17 -9 20 -20 3 -11
10 -20 16 -20 7 0 9 9 5 24 -3 13 1 37 9 52 l15 29 19 -34 c10 -19 28 -45 40
-58 44 -46 34 -80 -37 -122 -41 -25 -60 -27 -60 -6 0 8 -16 27 -35 42 -38 31
-44 57 -18 85 15 17 15 18 0 18 -11 0 -17 9 -18 23 -2 35 2 81 8 90 9 14 33
-17 34 -43z m3262 -497 c-7 -2 -13 -12 -13 -21 0 -10 3 -13 8 -7 4 6 20 8 37
4 17 -4 23 -7 15 -8 -13 -1 -13 -2 0 -11 12 -8 12 -10 1 -10 -10 0 -11 -3 -2
-14 7 -8 9 -25 5 -40 -5 -20 -2 -26 11 -26 12 0 15 -5 11 -16 -5 -14 -4 -15 9
-4 9 7 18 10 22 6 3 -3 1 -6 -5 -6 -7 0 -12 -4 -12 -10 0 -5 7 -10 15 -10 12
0 11 -4 -4 -19 -10 -10 -25 -21 -32 -24 -8 -3 -3 -6 11 -6 14 -1 32 -5 40 -11
12 -8 12 -11 -2 -27 -13 -15 -15 -31 -8 -93 6 -61 5 -77 -8 -87 -8 -7 -12 -19
-8 -28 3 -9 2 -13 -4 -10 -6 3 -10 -1 -10 -9 0 -9 5 -16 11 -16 6 0 9 -9 6
-20 -3 -11 -1 -20 4 -20 5 0 8 -18 6 -40 -1 -25 -7 -40 -15 -40 -9 0 -11 -7
-7 -20 5 -15 3 -18 -8 -14 -8 3 -18 1 -22 -5 -3 -6 1 -11 10 -11 12 0 15 -6
10 -22 -5 -18 -4 -19 4 -8 13 19 20 11 21 -26 0 -90 1 -111 6 -129 5 -19 4
-19 -9 -2 -13 16 -15 16 -21 1 -10 -27 -7 -44 9 -44 8 0 15 -6 15 -14 0 -8 6
-17 13 -20 6 -4 3 -5 -8 -3 -18 4 -20 0 -17 -29 2 -19 8 -31 13 -28 5 3 9 -4
9 -16 0 -11 7 -32 16 -45 9 -13 13 -28 10 -34 -4 -5 1 -11 10 -13 13 -2 8 -11
-20 -41 -21 -23 -41 -35 -47 -31 -8 4 -9 3 -5 -4 4 -7 1 -12 -7 -12 -8 0 -17
-8 -20 -19 -3 -14 -11 -17 -33 -14 -16 2 -37 4 -46 4 -11 0 -15 6 -11 16 4 9
-1 21 -13 30 -15 11 -17 18 -8 41 8 22 7 31 -4 41 -10 10 -12 26 -7 60 4 25
11 48 16 49 16 6 10 19 -11 25 -14 4 -19 12 -17 35 1 17 5 28 10 25 4 -2 7 5
7 16 0 11 -5 23 -11 27 -6 4 -8 20 -4 40 3 19 2 34 -3 34 -9 0 -2 50 14 104 4
10 2 16 -2 13 -15 -8 -11 160 4 175 10 10 8 15 -10 25 -13 7 -17 12 -10 13 19
0 16 60 -4 60 -10 0 -12 4 -7 13 12 18 11 60 -1 76 -7 10 -6 16 7 26 21 15 23
29 3 22 -18 -7 -28 3 -17 17 5 6 11 25 13 41 2 20 9 30 20 30 10 0 17 4 17 9
0 5 5 13 13 18 8 6 5 7 -12 2 -22 -6 -23 -5 -12 9 10 12 10 16 0 21 -10 5 -10
7 0 12 6 3 10 10 6 15 -3 5 2 9 10 9 9 0 16 7 16 16 0 8 5 12 10 9 6 -4 8 -10
5 -15 -3 -5 -1 -11 5 -15 13 -8 13 16 1 48 -11 28 -6 37 18 36 10 0 12 -2 4
-6z m-345 -408 c4 -3 1 -9 -5 -13 -6 -4 -11 -16 -10 -27 1 -12 -3 -19 -11 -17
-7 1 -25 -10 -39 -24 -24 -24 -25 -26 -5 -20 13 5 22 3 22 -3 0 -6 -7 -11 -15
-11 -8 0 -15 -5 -15 -11 0 -5 5 -7 12 -3 7 4 8 3 4 -5 -4 -6 -12 -9 -17 -6 -5
4 -9 -5 -9 -19 0 -14 4 -26 10 -26 5 0 7 7 4 15 -4 10 -2 13 8 10 15 -6 38 32
38 61 0 8 5 12 10 9 7 -4 6 -13 -1 -27 -9 -16 -8 -19 3 -16 7 3 13 17 13 31 0
14 6 32 14 39 11 11 12 9 7 -8 -6 -20 -5 -21 34 -11 22 6 40 15 40 19 0 4 8 8
18 8 13 0 14 2 3 9 -7 5 -12 14 -9 21 2 8 11 2 22 -15 10 -15 13 -24 6 -20 -7
4 -13 -1 -17 -14 -3 -12 -12 -21 -20 -21 -9 0 -13 -6 -9 -15 3 -10 -1 -15 -12
-16 -16 -1 -16 -2 0 -6 32 -8 35 -78 5 -111 -10 -10 -17 -24 -17 -30 0 -7 -8
-12 -18 -12 -10 0 -27 -7 -38 -15 -18 -14 -17 -14 12 -9 19 4 34 1 38 -5 4 -6
0 -12 -8 -12 -32 -3 -36 -4 -36 -11 0 -5 0 -14 0 -22 0 -8 10 -17 23 -19 12
-2 5 -3 -15 -1 -34 4 -54 -9 -27 -18 17 -6 -8 -57 -33 -68 -18 -7 -19 -9 -5
-9 21 -1 23 -21 2 -21 -8 0 -15 -4 -15 -10 0 -5 5 -10 11 -10 5 0 7 -5 4 -10
-4 -6 -10 -8 -15 -5 -5 3 -11 1 -15 -5 -3 -5 0 -10 7 -10 8 -1 5 -7 -7 -16
-13 -9 -16 -17 -9 -22 6 -4 14 -16 18 -26 6 -19 6 -19 -12 -3 -16 14 -19 15
-19 2 0 -8 5 -15 11 -15 6 0 2 -7 -8 -15 -16 -12 -17 -15 -4 -15 8 0 21 -7 29
-16 11 -13 9 -14 -13 -9 -18 5 -27 2 -32 -10 -5 -13 -2 -16 10 -11 20 8 36 -2
27 -17 -13 -21 -10 -47 6 -47 11 0 9 -4 -7 -16 -12 -8 -22 -20 -22 -27 0 -8 3
-8 12 1 21 21 24 14 25 -60 1 -121 5 -138 28 -133 11 3 14 2 8 -1 -7 -3 -13
-12 -13 -20 0 -8 -8 -14 -17 -14 -16 0 -16 2 -3 11 12 9 12 10 -3 5 -10 -3
-25 -6 -33 -6 -9 0 -13 -4 -9 -10 3 -5 12 -7 19 -4 7 3 16 -3 20 -12 8 -21 -2
-33 -14 -15 -7 12 -11 12 -24 -2 -12 -11 -13 -16 -3 -20 6 -2 -5 -7 -25 -11
-21 -4 -38 -12 -38 -18 0 -5 -7 -8 -15 -4 -10 4 -15 -1 -15 -15 0 -16 -4 -19
-17 -14 -15 5 -16 4 -5 -6 18 -19 15 -36 -7 -42 -21 -5 -37 18 -21 28 13 8 13
45 0 45 -5 0 -10 -6 -10 -14 0 -7 -7 -19 -15 -26 -8 -7 -15 -21 -15 -32 0 -15
-5 -18 -21 -13 -19 6 -21 4 -15 -27 3 -18 3 -27 0 -20 -3 6 -12 12 -20 12 -8
0 -14 5 -14 11 0 6 -7 9 -15 6 -8 -4 -17 -2 -20 3 -4 6 -17 10 -30 10 -13 0
-27 5 -30 10 -4 7 3 9 22 5 25 -5 26 -4 6 4 -16 7 -21 15 -16 28 7 17 8 17 11
1 2 -10 8 -18 14 -18 5 0 7 7 4 16 -3 9 -6 20 -6 25 0 5 -7 9 -15 9 -8 0 -15
-5 -15 -11 0 -7 -8 -17 -17 -24 -15 -11 -15 -18 -5 -51 8 -27 8 -41 0 -51 -7
-9 -6 -20 7 -39 9 -15 12 -23 5 -19 -6 4 -20 -1 -31 -11 -21 -19 -27 -6 -7 14
10 10 10 15 -2 22 -9 6 -11 13 -5 18 16 12 14 82 -3 82 -11 0 -13 -9 -8 -39 4
-27 2 -41 -7 -45 -9 -5 -9 -7 1 -12 21 -10 13 -25 -10 -20 -36 7 -58 17 -58
28 0 6 -7 7 -16 4 -9 -3 -12 -2 -9 5 4 5 16 7 28 3 l22 -7 -20 23 c-11 13 -15
20 -8 17 6 -4 14 -1 16 5 4 8 6 7 6 -3 1 -9 8 -20 17 -23 15 -6 15 -4 3 11
-12 15 -12 16 3 10 14 -5 17 0 17 21 0 15 3 44 7 65 4 25 3 37 -6 37 -14 0 -9
40 5 43 6 1 11 -10 13 -25 2 -16 8 -28 14 -28 6 0 8 11 6 25 -3 13 -2 23 1 21
3 -2 15 0 26 5 19 7 19 8 -2 8 -31 1 -29 21 2 21 14 0 25 5 25 10 0 6 -9 10
-20 10 -11 0 -20 4 -20 9 0 6 9 8 19 6 17 -3 18 0 10 27 -5 19 -5 37 1 47 6
11 9 12 10 3 0 -11 2 -11 13 0 15 15 21 82 6 73 -5 -4 -9 -16 -9 -28 0 -19 -6
-22 -45 -25 -35 -2 -45 1 -45 13 0 17 16 20 25 5 4 -6 11 -7 17 -4 5 3 -7 20
-27 37 -30 24 -36 35 -33 58 3 15 1 26 -4 23 -17 -11 -7 34 13 60 l21 27 -20
6 c-13 3 -18 10 -15 19 3 9 -2 14 -17 14 -15 0 -20 -4 -17 -15 4 -8 2 -17 -3
-20 -6 -4 -10 3 -10 14 0 10 -5 21 -12 23 -7 3 -5 13 7 31 18 29 41 37 31 12
-3 -9 3 -19 14 -25 11 -6 20 -17 20 -24 0 -8 7 -16 15 -19 14 -6 3 22 -36 96
-6 10 -7 26 -4 36 3 10 -1 24 -10 31 -13 11 -14 8 -9 -19 4 -20 3 -31 -5 -31
-10 0 -16 27 -12 58 1 6 -3 12 -9 12 -5 0 -10 -8 -10 -17 0 -15 -2 -16 -10 -3
-8 12 -10 11 -10 -7 0 -13 3 -23 8 -23 4 0 7 -14 8 -30 1 -36 -3 -37 -28 -8
-14 16 -21 19 -30 10 -9 -9 -7 -15 8 -27 17 -13 17 -14 2 -15 -10 0 -18 4 -18
8 0 4 -13 13 -30 19 -27 10 -30 9 -31 -10 -2 -20 -2 -21 -6 -2 -2 11 -13 31
-24 45 -12 14 -19 18 -16 8 9 -27 -38 -29 -71 -2 -2 1 1 11 7 23 27 53 28 56
15 69 -15 14 -15 12 -18 -48 -1 -18 -6 -24 -18 -22 -12 2 -18 -4 -18 -18 0
-11 -4 -20 -10 -20 -5 0 -10 9 -10 21 0 15 -5 19 -15 15 -8 -3 -15 -1 -15 3 0
5 5 11 11 13 7 2 7 12 -2 31 -10 22 -10 30 3 44 9 10 19 29 23 43 7 22 6 23
-9 11 -11 -9 -16 -10 -16 -2 0 7 -4 9 -10 6 -6 -3 -7 1 -4 9 8 21 0 20 -21 0
-15 -16 -18 -16 -33 0 -12 12 -13 19 -5 27 8 8 9 20 2 36 -8 22 -7 24 12 18
15 -5 19 -4 14 4 -4 7 -2 18 5 26 8 10 8 15 -3 22 -8 4 -16 18 -19 30 -5 20
-1 23 41 28 25 3 56 8 69 11 14 3 22 0 22 -10 0 -8 7 -16 15 -20 8 -3 12 -12
9 -21 -4 -10 0 -15 10 -15 9 0 16 7 16 16 0 8 5 12 10 9 6 -3 10 -15 10 -26 0
-18 2 -19 21 -6 11 8 29 13 40 10 13 -4 19 0 19 11 0 10 8 16 22 16 19 0 15
-7 -27 -46 -41 -39 -44 -44 -17 -30 17 9 34 20 37 26 3 5 15 15 27 21 15 8 19
8 14 0 -12 -18 3 -12 25 10 17 17 23 19 30 8 8 -12 11 -12 20 1 8 12 9 10 4
-7 -5 -17 -2 -23 9 -23 9 0 16 6 16 13 0 8 4 7 10 -3 13 -19 13 -33 0 -25 -6
4 -9 -10 -7 -34 2 -43 17 -58 17 -17 0 25 22 49 48 53 10 1 24 10 32 20 21 26
66 24 63 -2 -1 -12 4 -7 12 13 8 17 18 32 21 32 3 0 2 -4 -1 -10 -3 -5 -2 -10
4 -10 5 0 11 6 14 13 3 9 9 9 25 0 16 -10 21 -9 26 2 2 7 1 15 -4 17 -4 2 -2
9 6 16 11 10 14 10 14 -2 0 -18 31 -30 41 -15 3 6 13 9 20 7 18 -6 52 30 45
49 -6 13 -4 14 9 3 13 -11 18 -11 28 0 9 10 9 11 0 6 -9 -5 -11 -2 -7 8 3 9
10 16 15 16 17 0 46 37 51 64 4 19 2 26 -7 22 -19 -7 -26 4 -12 20 12 14 71
13 85 -1z m-1527 -277 c40 -43 51 -67 45 -95 -5 -20 -4 -24 3 -13 8 12 13 12
23 2 10 -10 10 -18 -3 -40 -12 -21 -13 -32 -5 -45 8 -13 8 -20 -3 -26 -7 -5
-10 -14 -7 -20 4 -6 11 -9 16 -6 4 3 6 -4 3 -15 -5 -19 -19 -25 -55 -22 -11 1
-18 -5 -18 -16 0 -10 -4 -22 -9 -27 -6 -6 -3 -16 7 -25 14 -13 15 -12 9 3 -3
9 -2 17 3 17 6 0 10 -8 10 -17 0 -9 3 -14 6 -10 3 3 21 -3 40 -14 46 -26 53
-24 69 13 l13 32 13 -44 c7 -25 13 -50 15 -56 1 -6 5 -21 8 -32 7 -19 5 -20
-26 -11 -18 5 -34 9 -36 9 -2 0 0 10 3 21 5 15 4 19 -4 15 -6 -4 -11 -3 -11 3
0 6 -16 13 -35 17 -19 3 -35 11 -35 17 0 8 -3 8 -11 0 -16 -16 -1 -53 34 -86
27 -25 29 -31 18 -53 -11 -25 -11 -25 -36 -7 -13 10 -23 23 -20 30 2 8 -2 10
-12 6 -11 -5 -14 -3 -9 6 5 7 -1 22 -14 36 -12 13 -19 28 -16 34 4 7 1 8 -8 5
-11 -4 -16 0 -16 15 0 12 -5 21 -10 21 -6 0 -9 14 -6 33 7 53 17 77 33 77 9 0
13 6 9 15 -4 10 1 15 17 16 18 1 19 2 4 6 -11 3 -16 11 -13 19 4 9 -2 14 -17
15 -18 0 -19 2 -5 7 15 6 16 10 5 32 -11 21 -11 27 1 36 12 9 12 12 0 25 -11
11 -17 93 -9 117 3 8 23 -1 42 -20z m3229 -22 c0 -14 -5 -28 -10 -31 -13 -8
13 -35 33 -35 24 0 28 13 7 27 -18 13 -22 44 -8 58 11 11 78 -7 78 -21 0 -8 7
-14 16 -14 10 0 14 5 10 15 -7 20 21 32 37 16 8 -8 8 -11 -1 -11 -7 0 -12 -5
-12 -11 0 -8 4 -8 15 1 22 19 144 18 182 -1 l33 -17 -48 -9 -47 -9 54 -8 c30
-5 63 -17 74 -27 15 -13 25 -16 38 -9 43 24 95 0 82 -37 -7 -19 47 -16 61 2
13 19 67 25 73 9 2 -7 -8 -14 -22 -18 -14 -4 -25 -11 -25 -17 0 -7 7 -8 18 -4
42 18 59 17 65 -4 4 -17 1 -21 -18 -21 -13 0 -28 -7 -33 -16 -8 -15 -13 -15
-58 0 -27 9 -62 18 -77 21 -22 4 -27 10 -22 24 7 23 -19 48 -31 30 -4 -7 -2
-15 4 -17 13 -4 17 -32 4 -32 -5 0 -19 11 -32 25 -29 31 -44 32 -35 4 5 -14 3
-19 -4 -15 -5 4 -19 1 -29 -5 -23 -15 -78 9 -76 33 1 10 -5 14 -17 11 -13 -4
-22 2 -28 18 -5 13 -10 18 -10 11 -1 -15 -41 -7 -52 10 -3 5 -20 11 -37 14
-24 4 -33 0 -42 -16 -9 -17 -14 -18 -31 -10 -16 9 -23 7 -38 -11 -14 -17 -23
-20 -50 -14 -35 7 -56 41 -39 63 6 6 7 12 2 13 -5 0 -25 2 -44 4 -19 2 -40 -1
-47 -7 -18 -14 -16 -2 3 28 13 19 19 22 31 13 7 -7 16 -9 20 -5 3 3 0 7 -8 7
-18 2 39 16 69 18 17 1 22 -4 22 -23z m-480 -25 c0 9 12 14 38 15 28 1 41 -4
54 -21 17 -23 17 -24 -1 -30 -10 -3 -21 -15 -24 -26 -4 -15 -2 -18 7 -10 10 8
12 3 9 -22 -3 -29 -2 -30 7 -9 5 13 15 20 20 17 8 -5 8 -11 0 -20 -6 -7 -8
-20 -4 -29 4 -11 1 -16 -12 -16 -11 0 -34 -18 -53 -40 -19 -22 -40 -40 -47
-40 -17 0 -18 -12 -2 -28 18 -18 -6 -16 -42 3 -31 16 -37 11 -20 -15 5 -9 5
-19 -2 -27 -5 -7 -8 -28 -6 -47 3 -28 1 -33 -9 -24 -9 7 -13 7 -13 -1 0 -13
-49 -14 -70 -1 -13 9 -13 10 0 10 9 0 11 3 4 8 -15 10 -28 44 -25 66 2 10 -2
15 -8 12 -12 -8 -25 33 -19 60 1 9 9 19 17 22 11 4 13 -2 8 -27 -4 -18 -2 -31
3 -31 6 0 10 9 10 21 0 11 4 17 10 14 6 -4 9 -27 6 -54 -2 -26 0 -54 6 -62 7
-10 8 -5 4 19 -7 39 8 82 29 82 17 0 19 9 5 30 -8 13 -10 12 -10 -2 0 -22 -26
-24 -34 -2 -14 37 -7 44 43 44 55 0 82 18 74 49 -3 11 -17 21 -34 25 -21 4
-29 11 -29 27 0 12 5 19 12 17 16 -6 48 34 48 58 0 15 3 14 25 -6 17 -16 25
-19 25 -9z m1014 15 c46 -1 71 -5 73 -13 6 -16 35 -17 50 -2 8 8 20 8 40 2 15
-6 45 -8 66 -5 40 5 47 -5 20 -29 -37 -31 -78 -41 -121 -29 -23 6 -44 15 -47
20 -3 6 -17 10 -31 10 -16 0 -23 -4 -18 -11 4 -8 0 -8 -15 0 -11 7 -21 15 -21
19 0 8 -24 12 -69 12 -23 0 -41 14 -41 34 0 4 10 5 23 1 12 -5 53 -9 91 -9z
m-1474 -131 c1 19 2 19 16 -2 12 -17 22 -21 45 -16 18 3 29 1 29 -5 0 -6 -6
-9 -13 -7 -6 3 -18 -4 -25 -15 -7 -11 -8 -20 -3 -20 6 0 13 5 16 10 11 18 33
11 39 -12 11 -42 21 -51 45 -39 11 7 21 19 21 29 0 14 2 15 10 2 5 -8 5 -17 1
-20 -4 -3 -13 -14 -18 -25 -14 -27 12 -94 30 -76 9 9 9 14 -2 20 -10 7 -10 10
-1 16 8 5 16 1 22 -9 5 -9 15 -16 22 -16 8 0 13 -14 14 -35 1 -20 -3 -35 -10
-35 -7 0 -8 -14 -4 -39 5 -35 4 -39 -13 -34 -16 4 -19 1 -14 -18 5 -19 7 -20
12 -6 4 11 11 13 19 8 12 -7 12 -12 1 -30 -8 -11 -22 -21 -31 -21 -20 0 -23
-11 -7 -27 8 -8 8 -13 0 -17 -6 -4 -11 -3 -11 3 0 6 -11 6 -32 0 -26 -7 -35
-6 -44 6 -6 8 -17 15 -24 15 -10 0 -10 -3 0 -15 10 -13 7 -14 -26 -11 -22 2
-48 7 -58 12 -14 5 -17 4 -11 -5 4 -8 2 -17 -6 -21 -15 -10 -29 -4 -29 11 0 6
5 7 10 4 6 -3 10 -1 10 4 0 6 -6 11 -14 11 -19 0 -27 -38 -11 -48 11 -6 10
-12 -4 -31 l-19 -24 2 24 c0 14 -4 23 -11 22 -9 -2 -11 24 -10 98 1 68 -2 102
-10 107 -8 5 -9 13 -3 22 6 10 10 11 10 3 0 -7 7 -10 15 -7 13 5 13 9 1 26
-14 20 -11 58 6 58 5 0 6 -9 3 -20 -4 -11 -2 -20 4 -20 6 0 11 7 11 15 0 8 7
15 16 15 11 0 14 -6 8 -22 -6 -21 -6 -21 11 -4 17 17 17 19 2 27 -9 5 -14 16
-10 24 3 10 0 14 -8 12 -8 -2 -11 -2 -6 0 9 6 10 43 1 43 -4 0 -13 -8 -20 -17
-7 -10 -14 -13 -14 -7 0 14 47 54 54 47 3 -4 6 1 6 10 0 11 -7 14 -26 11 -18
-3 -25 -1 -21 8 2 7 9 12 15 11 5 -1 13 14 17 35 8 35 8 36 15 12 7 -21 8 -22
10 -5z m1646 -141 c32 4 46 1 62 -15 15 -14 29 -18 47 -13 14 3 32 1 40 -6 8
-6 19 -9 24 -6 5 4 12 2 16 -3 3 -6 19 -9 34 -8 22 1 27 5 19 15 -7 8 -7 12 0
12 5 0 15 -7 22 -15 10 -12 16 -13 27 -4 10 9 23 8 53 -6 29 -13 52 -16 89
-11 30 4 52 3 56 -4 8 -13 55 -13 55 0 0 6 10 10 23 10 27 -1 169 -48 146 -49
-16 -1 -34 -29 -26 -38 9 -8 87 10 87 20 0 13 30 47 41 47 5 0 6 -7 2 -16 -5
-13 0 -15 26 -12 19 2 35 -3 40 -11 6 -9 19 -12 37 -8 38 7 76 -11 69 -34 -7
-22 12 -34 29 -20 8 7 19 10 24 9 6 -2 17 6 25 17 11 15 18 17 28 8 17 -14
135 -20 132 -7 -1 8 14 9 60 5 5 -1 6 -9 3 -19 -4 -11 5 -25 27 -43 54 -42 65
-43 88 -4 19 32 39 46 39 28 0 -5 19 -8 43 -8 23 0 57 -4 74 -9 25 -7 37 -6
50 6 29 25 40 28 40 13 0 -8 -4 -15 -9 -15 -5 0 -6 -4 -3 -10 10 -17 34 -11
46 11 8 16 8 23 0 29 -7 4 4 11 24 17 30 10 34 9 25 -2 -9 -10 -6 -15 10 -20
11 -3 34 -18 51 -32 23 -20 41 -26 71 -25 22 1 48 -3 59 -8 14 -8 17 -7 13 3
-3 8 3 20 12 28 13 11 18 11 21 2 6 -17 35 -17 51 -1 10 10 15 10 23 -2 8 -11
12 -12 16 -2 3 9 12 7 33 -8 15 -11 40 -20 54 -20 14 0 26 -5 26 -11 0 -7 9
-9 23 -5 39 12 81 13 100 4 9 -5 17 -5 17 -1 0 15 48 13 60 -2 21 -25 41 -19
34 10 -5 20 -2 25 14 25 19 0 54 -30 36 -30 -10 0 17 -20 28 -20 4 0 5 7 2 15
-7 16 6 18 46 5 14 -4 19 -8 13 -9 -7 -1 -22 -10 -33 -21 -21 -21 -27 -35 -11
-25 5 3 12 1 15 -4 3 -5 -6 -11 -21 -14 -20 -4 -31 1 -45 18 -19 25 -52 24
-62 -1 -3 -8 -17 -14 -32 -14 -21 0 -25 4 -21 20 3 11 1 18 -4 14 -5 -3 -9 1
-10 8 0 7 -8 -3 -16 -22 -9 -19 -18 -29 -20 -22 -7 18 -20 15 -26 -8 -6 -25
-37 -27 -37 -2 0 22 -67 52 -103 45 -16 -3 -27 -1 -27 6 0 6 -7 11 -15 11 -8
0 -15 -4 -15 -10 0 -5 7 -10 15 -10 8 0 15 -6 15 -13 0 -11 -12 -12 -57 -6
-41 6 -60 4 -65 -4 -5 -8 -8 -5 -8 8 0 18 -7 20 -64 20 -36 0 -60 -3 -53 -7
16 -10 -4 -43 -27 -42 -9 0 -32 1 -51 2 -41 2 -46 18 -9 32 25 10 25 30 -1 30
-7 0 -15 6 -18 14 -6 16 -55 27 -63 15 -3 -5 -46 -7 -96 -4 l-90 6 -38 -41
c-30 -32 -44 -40 -73 -40 -37 0 -59 16 -34 26 26 10 15 30 -15 26 -19 -3 -30
1 -34 12 -8 22 -26 9 -19 -14 5 -15 0 -18 -26 -17 -18 1 -34 -3 -36 -10 -3 -8
8 -11 36 -10 26 1 41 6 43 16 2 9 15 -2 32 -28 16 -23 34 -40 40 -38 6 2 16
-2 21 -8 6 -7 28 -10 55 -8 37 4 48 9 58 31 8 17 9 29 2 36 -5 5 -10 15 -10
21 0 5 11 -2 24 -17 22 -26 44 -39 32 -19 -9 13 20 21 32 9 6 -6 8 -17 5 -24
-3 -8 0 -14 6 -14 6 0 11 8 12 18 1 9 5 -2 11 -25 9 -40 11 -43 44 -43 19 0
34 5 34 11 0 5 -4 8 -9 4 -12 -7 -43 24 -36 35 6 9 69 6 103 -5 12 -4 22 -15
22 -24 0 -10 14 -23 35 -31 19 -7 36 -19 39 -27 3 -7 14 -13 25 -13 11 0 25
-8 31 -17 8 -13 13 -14 16 -5 4 8 28 12 69 12 50 0 66 4 73 17 9 15 13 14 45
-10 36 -28 53 -34 42 -18 -3 5 0 13 6 16 6 4 13 -2 16 -14 6 -22 19 -28 25
-12 3 10 81 14 125 8 42 -6 38 -19 -5 -15 l-42 4 6 -34 c6 -32 6 -33 -15 -20
-11 7 -21 16 -21 21 0 4 5 5 12 1 7 -4 8 -3 4 4 -9 15 -63 16 -71 2 -4 -6 -11
-8 -16 -5 -5 4 -9 0 -9 -8 0 -8 -11 -22 -25 -31 -19 -13 -25 -13 -25 -3 0 7 6
19 13 26 10 11 8 12 -10 6 -15 -4 -23 -2 -23 6 0 8 -4 8 -13 1 -14 -12 -58 -5
-69 12 -4 7 -21 2 -47 -12 -23 -13 -41 -18 -41 -13 0 6 -7 11 -15 11 -8 0 -15
6 -16 13 0 10 -2 10 -6 0 -3 -8 -25 -13 -59 -13 -30 0 -54 -3 -54 -7 0 -15 43
-51 56 -46 8 3 14 0 14 -7 0 -8 10 -9 29 -5 30 6 43 -3 48 -35 5 -34 -11 -41
-63 -26 -27 7 -57 17 -66 21 -13 5 -18 3 -18 -10 0 -9 -5 -13 -11 -9 -8 4 -8
9 0 17 19 19 12 29 -15 23 -19 -5 -25 -3 -21 6 2 7 13 12 23 11 34 -4 48 5 34
22 -19 23 -98 17 -84 -6 3 -5 -2 -12 -12 -16 -15 -6 -38 18 -39 41 0 5 -10 13
-23 17 -14 5 -21 5 -17 0 8 -14 -59 -10 -67 3 -5 8 -8 7 -8 -1 0 -8 -13 -13
-30 -13 -35 0 -43 29 -10 37 11 3 17 9 14 15 -8 12 -46 -1 -61 -21 -10 -13
-15 -14 -32 -3 -12 6 -30 12 -41 12 -12 0 -20 7 -20 18 -1 16 -2 16 -14 -1
-12 -15 -18 -16 -34 -8 -12 6 -28 8 -36 5 -10 -4 -16 -1 -16 9 0 8 -10 18 -22
22 -14 4 -18 8 -10 12 23 9 12 32 -23 44 -19 7 -35 18 -35 24 0 17 -71 5 -77
-13 -4 -8 1 -20 10 -27 24 -18 21 -32 -10 -39 -17 -5 -29 -3 -34 6 -6 8 -9 9
-9 2 0 -20 -32 -25 -44 -8 -10 12 -26 15 -74 12 -34 -1 -62 -1 -62 0 0 2 9 15
20 29 11 14 17 29 15 33 -9 15 -66 23 -78 11 -6 -6 -16 -11 -22 -11 -5 0 -3 4
5 10 13 8 12 10 -1 15 -19 7 -77 -46 -71 -64 6 -17 -95 -11 -110 6 -15 19 -1
30 21 16 24 -15 45 -1 37 24 -8 25 -47 43 -75 36 -15 -4 -21 -1 -21 10 0 20
20 27 43 15 26 -13 60 0 54 22 -3 11 5 23 24 34 28 16 29 16 70 -14 43 -30 65
-35 131 -24 25 4 35 11 31 20 -3 10 -17 12 -47 8 -37 -6 -44 -3 -59 19 -14 22
-14 26 -1 31 8 3 23 0 33 -6 15 -9 24 -8 45 6 28 18 27 36 -3 36 -9 0 -26 6
-36 14 -16 12 -22 12 -43 -2 -22 -14 -25 -14 -33 -1 -10 19 -68 13 -76 -8 -3
-8 -13 -11 -24 -8 -13 4 -19 1 -19 -8 0 -10 7 -13 20 -10 25 7 90 -5 90 -17 0
-5 -30 -7 -67 -5 -48 2 -73 -1 -84 -11 -20 -18 -70 -27 -88 -15 -12 8 -13 15
-3 35 10 23 9 25 -10 23 -14 -1 -26 8 -38 28 -17 30 -17 50 1 40 5 -4 9 -1 9
5 0 6 -13 16 -29 23 -36 15 -121 10 -121 -8 0 -9 14 -11 50 -7 41 4 50 2 50
-12 0 -9 -7 -16 -16 -16 -9 0 -14 -6 -11 -12 2 -8 16 -12 32 -10 22 2 26 0 22
-12 -4 -9 -1 -16 5 -16 6 0 4 -8 -6 -19 -9 -10 -14 -25 -10 -35 5 -12 -1 -18
-24 -22 -35 -7 -52 -34 -22 -34 11 0 20 5 20 10 0 6 14 10 31 10 16 0 28 4 24
9 -3 5 -1 12 4 15 5 4 12 2 16 -4 3 -5 15 -10 26 -10 10 0 19 -7 19 -15 0 -18
-12 -19 -29 -2 -10 10 -14 9 -21 -4 -6 -9 -22 -20 -37 -24 -29 -7 -63 -32 -63
-47 0 -4 11 -8 24 -8 24 0 41 -23 30 -41 -8 -13 -34 -11 -34 2 0 13 -38 49
-52 49 -4 0 -8 7 -8 15 0 8 -9 15 -20 15 -11 0 -20 5 -20 10 0 6 9 10 21 10
13 0 18 4 13 12 -5 7 -9 21 -9 30 -2 26 -9 30 -39 18 -21 -7 -26 -15 -21 -29
7 -24 -7 -33 -35 -23 -20 8 -20 9 12 37 50 46 69 55 91 41 15 -9 21 -8 31 7 7
9 18 17 24 17 6 0 14 5 18 11 5 9 -6 10 -40 7 -44 -5 -68 3 -46 17 15 9 12 25
-5 25 -8 0 -15 -7 -15 -15 0 -8 -9 -15 -20 -15 -15 0 -20 7 -20 29 0 16 6 32
13 34 14 6 -13 8 -126 9 -42 0 -79 3 -81 7 -2 3 -34 4 -70 3 -53 -3 -66 -7
-66 -20 0 -15 -2 -15 -10 -2 -5 8 -10 24 -10 35 0 20 -9 24 -67 26 -25 1 -28
11 -13 39 8 16 15 17 52 8 24 -5 61 -7 84 -4z m122 -239 c21 -9 46 -29 56 -45
11 -20 25 -30 41 -30 13 0 31 -3 40 -6 27 -11 -3 -23 -42 -17 -20 3 -33 1 -33
-5 0 -6 -13 -10 -29 -10 -15 1 -33 -2 -38 -5 -6 -4 -42 4 -81 17 -56 19 -78
22 -109 15 -63 -14 -163 -11 -163 5 0 22 88 58 167 68 40 4 83 13 95 18 33 13
53 12 96 -5z m-1720 -148 c6 3 12 0 12 -5 0 -5 39 -12 88 -15 151 -10 316 -66
388 -134 66 -61 83 -107 147 -398 16 -71 18 -72 137 -51 46 8 88 12 92 10 5
-3 -5 -22 -22 -42 -41 -50 -30 -52 19 -3 22 22 35 42 30 45 -5 2 -4 3 3 2 20
-5 49 14 42 26 -4 7 -3 8 5 4 6 -4 23 1 39 12 32 23 93 58 145 84 29 14 49 17
83 12 38 -5 43 -4 38 10 -4 11 0 16 15 17 23 2 29 3 51 12 19 7 85 18 130 23
87 7 179 27 177 38 -1 6 4 10 11 8 18 -4 128 32 229 74 93 39 156 43 217 16
43 -19 194 -150 195 -169 1 -7 25 -37 54 -66 88 -91 152 -168 151 -183 -1 -8
3 -14 8 -14 20 0 34 -26 32 -59 -4 -55 21 -176 35 -173 7 1 10 -2 6 -7 -6 -11
10 -45 33 -70 8 -8 11 -24 7 -38 -4 -16 -1 -25 10 -29 8 -4 15 -13 15 -21 0
-11 7 -13 25 -9 28 7 30 0 15 -53 -7 -25 -6 -39 2 -48 7 -9 11 -48 9 -106 -3
-123 -5 -135 -24 -150 -16 -12 -18 -31 -5 -52 3 -5 9 -36 12 -67 4 -32 12 -58
18 -58 5 0 7 -7 4 -15 -3 -9 -2 -23 3 -33 19 -40 37 -112 31 -123 -6 -8 -10
-6 -17 6 -9 16 -11 16 -15 -3 -4 -14 -2 -19 7 -16 7 3 19 -2 28 -10 8 -8 18
-12 22 -8 4 4 2 -3 -4 -15 -14 -27 3 -32 18 -5 9 15 10 15 11 -5 0 -12 -5 -25
-10 -28 -6 -4 -8 -15 -5 -26 4 -10 1 -34 -6 -53 -11 -30 -16 -34 -38 -30 -14
3 -46 0 -71 -6 -25 -7 -79 -17 -120 -23 -70 -11 -76 -14 -90 -44 -8 -17 -24
-34 -35 -37 -10 -3 -16 -8 -13 -12 8 -7 -29 -49 -43 -49 -5 0 -13 -5 -17 -11
-10 -15 -55 -39 -69 -36 -6 1 -14 -2 -18 -8 -3 -5 -17 -10 -31 -10 -13 0 -24
-4 -24 -10 0 -14 -27 -12 -33 3 -3 8 -9 6 -19 -7 -8 -10 -20 -16 -26 -12 -17
10 -15 52 4 70 8 9 13 20 9 26 -3 5 0 18 7 29 10 17 10 23 -3 33 -8 7 -23 26
-33 41 -10 16 -20 26 -23 24 -6 -6 15 -46 34 -65 15 -16 17 -32 3 -32 -5 0
-10 -8 -10 -19 0 -10 -7 -24 -15 -31 -9 -7 -15 -8 -15 -2 0 5 -12 13 -26 16
-20 5 -23 10 -15 20 9 10 7 15 -6 20 -10 4 -20 1 -25 -9 -5 -8 -16 -15 -24
-15 -9 0 -12 5 -8 12 5 8 2 9 -9 5 -9 -3 -19 -2 -22 4 -4 5 -11 7 -16 4 -5 -3
-6 1 -3 9 4 9 1 16 -6 16 -7 0 -10 7 -7 14 4 10 1 13 -9 9 -11 -4 -12 -9 -5
-16 6 -6 11 -19 11 -29 0 -11 7 -18 20 -18 11 0 20 -7 20 -15 0 -12 -4 -13
-27 -2 -16 6 -32 16 -36 22 -5 6 -7 3 -3 -7 3 -10 1 -20 -4 -23 -6 -4 -10 5
-10 19 0 14 5 26 10 26 6 0 10 7 10 15 0 13 -4 12 -21 -4 -15 -14 -19 -26 -14
-43 6 -18 5 -21 -6 -11 -9 9 -16 10 -26 2 -10 -9 -13 -7 -13 7 0 11 18 32 40
48 60 45 67 79 10 56 -21 -9 -29 -18 -25 -28 4 -11 0 -13 -15 -9 -11 3 -23 0
-27 -5 -4 -7 -1 -8 7 -3 8 5 11 3 8 -5 -2 -8 -13 -18 -23 -24 -10 -6 -28 -19
-39 -28 -11 -10 -23 -18 -27 -18 -15 0 -18 -32 -3 -47 18 -18 14 -26 -10 -17
-20 8 -20 32 -1 72 10 20 21 29 30 25 14 -5 19 7 16 35 -1 6 4 12 11 12 9 0 9
3 1 11 -8 8 -17 6 -32 -7 -11 -10 -21 -22 -21 -27 0 -5 -9 -20 -20 -34 -11
-14 -20 -35 -20 -47 0 -26 -29 -70 -30 -46 0 12 -2 12 -9 2 -24 -38 -99 29
-116 102 -5 25 0 35 43 76 53 51 168 130 189 130 13 0 89 40 133 70 26 17 48
27 64 28 5 0 12 6 17 13 4 7 22 14 40 15 22 2 39 11 52 28 10 14 25 26 32 26
8 0 31 17 52 37 34 33 36 37 18 41 -11 2 -26 9 -34 16 -12 9 -13 8 -6 -3 6
-11 2 -13 -20 -8 -27 5 -55 -10 -55 -30 0 -4 -27 -17 -60 -27 -33 -11 -60 -23
-60 -27 0 -10 -74 -44 -125 -57 -66 -18 -158 -22 -226 -11 -35 6 -80 12 -100
14 -20 1 -41 5 -46 8 -5 3 -33 7 -61 8 -37 2 -51 6 -48 15 3 8 -11 14 -42 18
-77 9 -85 12 -89 27 -1 8 -10 43 -18 79 -8 36 -18 78 -21 93 -6 23 0 34 34 67
46 43 50 46 182 113 106 53 105 63 -3 16 -117 -51 -191 -68 -269 -62 -37 3
-68 10 -68 16 0 5 -7 7 -15 3 -8 -3 -15 -1 -15 4 0 5 -6 7 -14 4 -13 -5 -45
34 -51 64 -2 9 -11 47 -19 85 -15 62 -15 69 1 95 29 46 85 93 154 127 65 33
237 105 250 105 4 0 51 21 105 46 55 25 147 62 206 82 60 21 108 42 108 49 0
13 -4 12 -55 -8 -16 -7 -32 -13 -35 -13 -17 -4 -177 -71 -184 -78 -6 -4 -17
-8 -25 -8 -8 0 -33 -9 -55 -19 -23 -11 -66 -29 -96 -41 -30 -12 -101 -41 -158
-65 -56 -24 -104 -39 -107 -35 -3 5 -14 6 -25 3 -11 -3 -37 3 -57 13 -21 10
-43 17 -50 16 -14 -3 -55 72 -59 108 -6 57 -16 90 -25 90 -6 0 -7 6 -3 13 4 8
4 8 -2 2 -12 -12 -30 -68 -39 -119 -5 -30 -9 -36 -16 -25 -8 11 -9 9 -5 -6 3
-11 14 -63 25 -115 11 -52 36 -171 56 -265 73 -347 94 -450 109 -539 3 -16 8
-31 12 -35 4 -3 4 2 1 11 -12 35 12 26 79 -28 84 -67 150 -89 238 -81 34 3 79
13 101 23 55 23 233 31 259 12 17 -14 16 -16 -20 -59 -41 -47 -116 -87 -214
-115 -33 -9 -119 -18 -217 -21 l-163 -6 0 -34 0 -35 -36 21 c-228 135 -1007
91 -1494 -84 -95 -34 -238 -105 -285 -140 -19 -15 -39 -25 -42 -21 -4 4 -6 31
-5 61 1 30 -2 55 -7 55 -4 0 -9 10 -9 23 0 12 -4 47 -10 77 -6 30 -13 89 -17
130 -4 41 -10 93 -15 115 -13 57 -18 92 -25 160 -3 33 -17 121 -30 195 -13 74
-31 191 -40 260 -8 69 -20 148 -25 175 -6 28 -14 86 -20 130 -6 44 -14 107
-19 140 -6 33 -15 106 -21 162 -5 56 -14 123 -19 150 -15 78 -6 139 26 181
112 149 356 277 651 343 102 23 349 58 415 59 4 0 7 7 7 17 0 14 2 15 18 1 9
-9 23 -13 30 -11z m3645 -156 c4 0 7 -8 7 -17 0 -8 4 -13 9 -9 5 3 13 0 16 -5
4 -6 17 -10 28 -9 37 2 48 -1 42 -11 -3 -6 -17 -7 -29 -4 -16 4 -25 0 -29 -11
-6 -13 1 -15 36 -14 60 2 67 1 67 -16 0 -8 -16 -22 -36 -31 -29 -14 -39 -15
-58 -4 -18 9 -29 9 -44 1 -27 -14 -32 -14 -32 3 0 23 -20 30 -46 15 -28 -15
-48 -2 -38 24 4 11 14 15 32 11 22 -4 29 0 40 22 17 39 15 44 -13 44 -14 0
-25 4 -25 10 0 8 23 8 73 1z m-7110 -132 c12 -6 29 -19 37 -29 22 -27 55 -30
55 -6 0 28 18 30 66 7 29 -14 46 -18 53 -11 13 13 83 13 91 1 3 -5 -9 -21 -27
-35 l-32 -25 22 -24 c20 -21 22 -30 14 -58 -6 -24 -14 -33 -25 -31 -12 2 -19
-6 -23 -28 -4 -17 -10 -33 -15 -35 -13 -9 -21 78 -10 108 15 39 15 40 -19 78
-22 26 -30 30 -30 16 0 -9 5 -25 11 -36 7 -11 9 -32 5 -54 -7 -36 -19 -47 -31
-27 -3 6 -15 10 -26 10 -16 0 -20 6 -18 28 4 54 -1 84 -13 79 -7 -2 -12 -16
-10 -30 3 -32 -14 -44 -36 -24 -9 7 -25 17 -34 20 -12 4 -18 17 -18 37 0 17
-9 39 -20 50 -11 11 -20 22 -20 25 0 9 31 5 53 -6z m6141 -13 c42 -17 53 -34
32 -49 -12 -9 -13 -16 -5 -27 8 -11 12 -12 16 -2 8 20 43 14 43 -8 0 -28 28
-25 42 5 13 30 28 33 28 6 0 -11 9 -21 21 -24 27 -7 19 -33 -10 -30 -11 2 -21
-1 -21 -6 0 -5 -14 -14 -31 -20 -39 -14 -49 -14 -49 -1 0 6 7 10 15 10 42 0
-9 40 -56 44 -8 0 -23 9 -33 18 -14 14 -21 15 -44 6 -15 -7 -31 -15 -37 -19
-5 -4 -22 3 -37 16 -28 24 -41 48 -14 26 17 -14 89 -4 80 11 -3 5 -18 14 -32
19 -26 10 -26 11 -8 25 25 18 57 18 100 0z m-4054 -76 c0 -27 16 -25 24 3 6
21 7 21 17 4 9 -15 7 -21 -8 -33 -16 -12 -15 -13 15 -8 21 4 32 3 32 -5 0 -6
-7 -11 -16 -11 -18 0 -14 -22 6 -28 7 -3 10 -1 7 4 -3 5 1 18 9 29 14 18 14
18 14 -3 0 -14 6 -22 17 -22 14 0 12 -4 -7 -17 -48 -33 -53 -41 -35 -59 15
-15 17 -15 30 2 8 11 14 24 14 29 0 6 -6 1 -14 -9 -8 -11 -18 -17 -21 -13 -10
9 13 34 36 40 19 5 19 4 4 -32 -9 -20 -17 -48 -19 -64 -2 -24 -28 -56 -46 -57
-4 0 -12 13 -19 29 -8 21 -17 28 -28 24 -10 -4 -8 1 6 15 12 12 22 27 22 34 0
6 -7 3 -16 -8 -8 -10 -13 -14 -10 -8 3 7 -1 17 -9 24 -8 7 -15 21 -15 31 0 11
-7 19 -15 19 -8 0 -15 5 -15 10 0 6 6 10 13 10 7 0 8 3 2 8 -5 4 -15 17 -22
28 -10 19 -10 21 8 17 14 -4 19 0 19 16 0 11 5 21 10 21 6 0 10 -9 10 -20z
m4390 -90 c14 -27 44 -41 92 -44 37 -3 39 -2 34 20 -5 19 -2 25 19 30 36 9 40
0 22 -38 -16 -33 -16 -33 9 -36 13 -2 30 -12 37 -23 6 -10 19 -19 29 -19 23 0
31 -15 14 -29 -15 -13 -46 -5 -46 12 0 6 -3 8 -6 5 -3 -4 -19 -2 -35 2 -17 5
-31 5 -34 -1 -11 -17 -35 -9 -35 11 0 24 -8 25 -29 6 -19 -17 -46 -2 -52 29
-3 13 -14 21 -32 23 -22 3 -27 8 -27 31 0 44 22 56 40 21z m1403 -88 c-7 -4
-13 -23 -15 -42 -1 -19 -7 -38 -13 -42 -7 -6 -6 -11 3 -16 7 -5 15 -19 17 -32
2 -13 9 -28 15 -34 17 -17 11 -28 -11 -21 -12 4 -28 8 -36 9 -8 1 -18 7 -21
13 -4 6 -16 13 -27 15 -27 4 -47 33 -44 61 2 12 0 27 -4 34 -8 13 20 32 61 39
14 3 33 9 41 14 20 12 52 13 34 2z m-7883 -492 c0 -5 7 -10 15 -10 17 0 57
-59 49 -72 -7 -11 -42 -10 -79 3 -29 11 -34 9 -59 -16 -21 -21 -30 -25 -36
-15 -6 9 -14 1 -29 -28 -33 -64 -134 -106 -175 -73 -27 23 -95 140 -85 147 10
6 28 -12 49 -48 9 -14 15 -15 42 -6 27 9 33 8 45 -8 8 -10 12 -26 10 -34 -2
-8 25 13 60 48 36 35 71 61 78 58 7 -2 15 4 18 16 4 15 11 18 26 13 15 -4 21
-2 21 9 0 12 13 20 43 25 4 0 7 -3 7 -9z m1365 -268 c-17 -12 -17 -33 1 -59
10 -16 12 -29 6 -35 -6 -6 -6 -20 1 -39 11 -28 27 -40 27 -19 0 6 8 5 20 -2
23 -15 27 -30 5 -22 -12 5 -15 -2 -15 -29 0 -44 17 -57 39 -28 l16 21 18 -20
c9 -11 17 -25 17 -30 0 -6 5 -10 11 -10 6 0 9 6 6 14 -4 10 0 12 15 8 11 -2
22 -11 25 -18 3 -8 10 -14 15 -14 6 0 5 6 -2 15 -10 13 -9 15 9 15 11 0 21 -4
21 -10 0 -15 78 -92 88 -86 14 8 55 -40 47 -55 -6 -9 1 -10 29 -5 33 6 36 5
36 -16 0 -19 2 -20 10 -8 9 13 12 13 21 -2 5 -10 16 -18 24 -18 7 0 17 -9 20
-20 4 -14 18 -22 45 -26 22 -4 54 -17 72 -30 39 -29 52 -30 45 -4 -3 11 -1 18
4 14 5 -3 9 -16 9 -29 0 -26 37 -46 50 -26 4 7 15 9 26 4 17 -6 17 -5 5 10 -7
9 -20 17 -27 17 -8 0 -14 7 -14 15 0 8 1 15 3 15 14 0 115 -34 124 -42 7 -5
18 -8 25 -5 7 2 30 -4 50 -14 21 -11 48 -19 62 -19 14 0 27 -4 30 -9 7 -11
-17 -21 -52 -21 l-27 0 30 -25 c17 -13 36 -24 43 -25 6 0 12 -5 12 -11 0 -6 7
-9 15 -5 10 3 15 -1 15 -13 0 -29 -24 -33 -178 -32 -106 1 -151 5 -172 16 -16
8 -38 15 -48 15 -39 0 -252 60 -301 84 -28 15 -75 35 -106 47 -30 11 -79 39
-107 63 -29 23 -74 54 -100 69 -27 16 -48 32 -48 37 0 6 -31 40 -70 76 -38 37
-67 71 -64 75 3 5 1 9 -3 9 -7 0 -29 43 -38 75 -2 6 -6 18 -10 28 -4 10 -4 17
1 16 20 -3 23 2 14 26 -7 20 -6 25 5 25 8 0 15 7 15 15 0 8 -5 15 -11 15 -5 0
-7 5 -4 10 4 7 13 7 26 0 13 -8 19 -7 19 0 0 6 5 8 12 4 9 -6 9 -9 0 -12 -7
-2 -12 -12 -12 -22 0 -10 -7 -20 -15 -24 -8 -3 -15 -11 -15 -17 0 -8 4 -8 15
1 8 6 19 9 25 5 5 -3 10 1 10 9 0 9 5 16 10 16 6 0 14 8 18 18 12 29 66 79 77
70 6 -6 6 -11 0 -16z m5183 -82 c5 0 35 -25 66 -55 31 -30 56 -49 56 -43 0 21
80 -65 81 -87 0 -11 3 -15 5 -8 5 12 44 -19 44 -35 0 -5 9 -17 19 -26 17 -15
18 -21 8 -38 -9 -16 -9 -22 1 -25 6 -3 12 -12 13 -21 0 -12 2 -13 6 -4 4 10 8
9 19 -5 12 -16 13 -16 14 -1 0 18 18 28 37 21 6 -3 9 -12 6 -20 -5 -14 1 -15
42 -9 41 7 47 5 42 -8 -4 -11 -1 -13 11 -9 15 6 15 5 3 -10 -13 -16 -8 -22 13
-18 5 1 12 -3 16 -9 4 -6 18 -12 31 -12 13 -1 40 -13 59 -26 29 -20 31 -23 10
-17 -20 6 -23 5 -12 -6 6 -7 12 -27 12 -43 0 -22 3 -27 9 -17 5 8 7 20 4 27
-7 18 17 28 30 14 9 -10 9 -11 0 -6 -7 4 -13 5 -13 2 0 -3 16 -12 36 -21 32
-13 34 -16 24 -37 -11 -22 -10 -22 4 -4 15 19 16 19 36 1 11 -10 20 -23 20
-30 0 -16 45 -57 53 -48 4 3 7 2 7 -4 0 -6 9 -13 21 -16 12 -3 18 -10 15 -16
-4 -6 -13 -8 -20 -5 -9 3 -15 -5 -18 -24 -4 -28 -3 -28 20 -16 36 18 56 1 60
-49 1 -23 8 -45 15 -49 8 -5 6 -9 -6 -14 -23 -8 -22 -24 2 -24 11 0 21 -3 24
-7 2 -5 2 -2 0 6 -2 7 5 20 14 27 22 17 24 17 47 -1 16 -12 17 -17 6 -30 -12
-15 -10 -16 21 -10 27 5 39 2 50 -11 12 -16 12 -17 -3 -11 -10 3 -25 4 -34 0
-12 -4 -9 -9 15 -19 30 -13 39 -38 32 -91 -1 -7 3 -13 9 -13 5 0 10 12 10 26
0 14 7 32 15 40 13 14 15 14 15 0 0 -9 5 -16 11 -16 6 0 8 -8 4 -19 -4 -13 0
-20 16 -24 19 -5 20 -8 9 -22 -11 -13 -10 -18 6 -31 10 -9 13 -13 7 -9 -8 4
-13 0 -13 -10 0 -8 -7 -18 -15 -21 -8 -4 -15 -10 -15 -16 0 -5 4 -7 9 -3 5 3
12 1 16 -5 3 -5 11 -10 17 -10 6 0 8 3 5 7 -8 7 11 33 25 33 5 0 6 -5 3 -11
-4 -6 3 -13 14 -16 15 -4 20 -11 16 -23 -6 -20 18 -50 41 -50 8 0 14 -4 14
-10 0 -5 -4 -10 -10 -10 -5 0 -10 -9 -10 -19 0 -11 -12 -29 -27 -40 -22 -16
-24 -20 -10 -21 9 0 17 -4 17 -10 0 -5 5 -10 10 -10 6 0 10 7 8 16 -2 10 2 19
7 21 7 2 11 -20 10 -59 0 -50 4 -66 21 -83 25 -25 24 -47 -1 -95 l-19 -35 -6
30 -7 30 -7 -35 c-5 -23 -18 -43 -39 -57 l-31 -22 -20 21 c-24 26 -10 54 25
50 12 -1 20 1 16 5 -4 3 2 17 14 29 12 12 18 27 15 32 -3 6 -34 -18 -67 -51
l-61 -62 8 45 c4 25 8 54 9 66 1 11 5 26 10 33 6 11 1 13 -24 9 -33 -5 -38 1
-19 20 7 7 8 12 3 12 -4 0 0 9 10 20 16 18 16 20 2 20 -9 0 -19 -11 -23 -25
-5 -21 -9 -23 -25 -14 -16 8 -19 6 -19 -9 0 -32 -32 -122 -41 -116 -5 3 -12
-2 -15 -10 -3 -9 -13 -16 -20 -16 -20 0 -29 -27 -15 -44 9 -11 9 -16 0 -21
-14 -9 -29 12 -29 43 0 15 7 26 19 29 18 5 18 6 3 22 -10 10 -22 14 -27 10
-12 -9 -34 -7 -52 4 -9 6 -13 2 -13 -12 0 -12 -4 -21 -10 -21 -5 0 -10 -8 -10
-17 1 -17 1 -17 14 0 20 26 36 21 36 -13 0 -23 -3 -28 -17 -23 -13 5 -15 2
-11 -15 4 -12 3 -24 -2 -27 -11 -7 -21 22 -14 40 4 8 1 15 -6 15 -6 0 -14 -9
-17 -20 -5 -20 -23 -28 -23 -10 0 6 -5 10 -11 10 -6 0 -9 -7 -5 -15 3 -8 2
-15 -3 -15 -4 0 -7 -16 -7 -35 1 -34 19 -48 29 -22 3 6 6 0 6 -15 1 -16 -3
-28 -9 -28 -5 0 -10 5 -10 11 0 8 -5 8 -15 -1 -12 -10 -15 -10 -15 4 0 21 -9
20 -26 -1 -12 -16 -13 -16 -14 -2 0 9 -9 19 -20 22 -11 3 -18 1 -14 -4 3 -5 1
-9 -4 -9 -6 0 -8 -10 -5 -22 4 -18 3 -20 -6 -12 -20 18 -25 89 -10 123 11 24
18 29 34 25 20 -7 20 -6 1 14 -10 12 -21 42 -23 67 -5 37 -3 45 11 45 11 0 16
7 15 23 -4 47 1 65 24 72 l22 8 -25 4 c-13 3 -26 1 -27 -4 -8 -22 -23 -37 -30
-30 -4 5 -3 11 2 15 6 4 11 20 13 37 2 16 8 35 14 42 5 7 8 18 5 25 -3 8 -6 5
-6 -7 -1 -14 -4 -16 -13 -7 -8 8 -8 15 2 27 18 21 9 27 -14 9 -15 -10 -17 -17
-9 -25 12 -12 -1 -55 -22 -72 -6 -5 -3 -7 8 -3 9 3 17 3 17 1 0 -8 -24 -49
-32 -55 -3 -3 -9 -19 -13 -35 -6 -28 -5 -29 8 -12 9 11 18 14 21 8 4 -5 2 -12
-4 -16 -5 -3 -10 -29 -10 -56 0 -28 -4 -48 -9 -45 -5 3 -12 -15 -16 -40 -8
-56 -21 -72 -52 -66 -24 5 -30 17 -13 27 6 3 10 12 10 18 0 7 -4 6 -11 -3 -7
-11 -12 -12 -15 -3 -3 7 -12 9 -20 6 -10 -4 -12 0 -7 13 6 16 5 17 -9 4 -15
-14 -16 -16 -1 -27 21 -16 7 -31 -15 -16 -10 6 -16 22 -15 38 1 17 -2 25 -10
22 -7 -2 -11 -12 -9 -22 2 -10 -1 -14 -7 -10 -7 3 -8 0 -5 -9 3 -9 2 -16 -4
-16 -15 0 -21 23 -10 43 11 22 1 38 -11 18 -15 -23 -22 19 -10 56 12 38 10 46
-10 34 -11 -7 -15 -26 -20 -100 -1 -19 -5 -23 -26 -19 -14 3 -25 1 -25 -3 0
-5 -4 -9 -9 -9 -17 0 2 48 24 60 14 7 23 21 23 36 0 29 -14 31 -28 4 -6 -11
-15 -20 -21 -20 -6 0 -8 4 -4 9 3 5 1 12 -5 16 -5 3 -10 0 -11 -7 -1 -7 -5 3
-10 22 -4 19 -6 42 -4 50 3 9 -4 19 -18 25 -12 6 -24 19 -26 30 -3 19 -3 19
17 2 19 -17 20 -17 25 2 6 23 -11 32 -42 24 -12 -3 -21 -1 -21 6 0 6 7 11 15
11 8 0 15 5 15 11 0 6 -10 9 -22 7 -19 -2 -22 -8 -20 -35 3 -26 -2 -34 -27
-49 -24 -14 -29 -23 -25 -41 5 -20 2 -23 -20 -23 -17 0 -26 5 -26 16 0 9 5 12
13 8 9 -6 8 -3 -1 8 -8 9 -20 14 -29 11 -13 -5 -13 -3 -2 16 8 11 20 21 27 21
22 0 2 20 -21 21 -20 1 -19 2 6 12 15 6 27 14 27 18 0 13 -18 20 -25 9 -11
-18 -38 -12 -31 8 6 16 5 16 -8 0 -16 -22 -26 -23 -26 -4 0 8 7 17 16 20 8 3
12 11 8 17 -4 8 -3 9 5 5 6 -4 19 -2 27 5 19 16 30 4 14 -16 -10 -12 -10 -15
3 -15 9 0 19 5 22 10 3 6 17 10 31 10 13 0 24 5 24 11 0 7 -10 9 -25 7 -13 -3
-22 -2 -20 2 11 18 -21 29 -47 16 -23 -12 -26 -12 -21 1 5 12 1 14 -18 8 -13
-4 -28 -11 -33 -16 -6 -5 -22 -9 -37 -9 -34 0 -86 26 -67 33 7 3 -4 6 -24 6
-20 1 -41 7 -45 14 -4 6 -20 18 -35 26 -16 8 -28 19 -28 24 0 5 -8 16 -17 23
-17 13 -17 13 0 14 24 0 21 20 -3 20 -16 0 -20 6 -18 30 1 17 7 30 13 30 5 0
2 7 -7 14 -24 18 -23 29 2 21 27 -9 60 3 54 19 -6 15 81 50 97 40 5 -3 9 0 9
6 0 6 4 9 8 6 4 -2 19 4 32 15 l25 19 -30 -4 c-16 -2 -24 -1 -17 1 17 6 15 23
-3 23 -8 0 -15 7 -15 16 0 8 -4 13 -9 10 -5 -4 -11 0 -14 6 -3 9 -11 7 -28 -7
-13 -11 -4 2 19 29 23 27 42 55 42 62 0 8 4 14 8 14 5 0 14 12 20 26 7 14 16
23 21 20 5 -3 14 1 21 9 8 9 8 15 2 15 -6 0 -12 -5 -14 -12 -3 -7 -7 -5 -11 6
-4 10 -3 15 3 11 12 -7 31 35 22 49 -3 5 0 6 6 2 8 -5 12 0 12 13 0 11 4 22 9
25 5 4 7 -4 3 -16 -5 -21 -4 -22 12 -9 11 9 16 24 13 37 -3 20 -1 22 14 13 15
-8 19 -6 19 6 0 9 -4 14 -9 11 -14 -9 -41 4 -41 20 0 8 -4 14 -9 14 -5 0 -11
18 -15 40 -3 22 -11 40 -17 40 -5 0 -7 5 -4 10 4 6 10 8 14 5 5 -2 6 6 4 19
-3 13 0 27 6 30 6 4 11 18 11 32 0 18 4 23 13 17 6 -4 4 5 -5 20 -22 32 -23
41 -3 34 8 -4 17 -2 20 3 3 4 1 10 -5 12 -7 2 -5 19 4 48 8 25 14 39 15 33 1
-7 6 -13 13 -13 6 0 4 7 -5 18 -10 10 -17 26 -17 35 0 9 -6 17 -12 17 -8 0
-14 15 -15 37 -1 20 -10 48 -21 62 -10 14 -21 35 -25 46 -7 19 -6 19 7 3 7
-10 18 -18 24 -18z m-4528 -171 c11 -25 14 -26 45 -16 19 5 32 14 29 19 -3 5
-12 7 -20 4 -8 -3 -11 0 -7 10 7 18 18 18 37 -1 8 -8 30 -18 48 -22 18 -3 35
-10 38 -14 9 -13 64 -24 56 -10 -4 6 -13 11 -21 11 -8 0 -17 5 -20 10 -11 18
25 10 45 -10 30 -30 16 -43 -36 -35 -31 4 -44 3 -44 -6 0 -7 8 -9 21 -6 12 3
22 0 26 -9 3 -8 10 -14 17 -13 18 2 56 -13 56 -22 0 -5 9 -9 19 -9 11 0 23 -4
26 -10 10 -16 -36 -12 -49 4 -6 8 -27 17 -46 21 l-35 6 40 -20 c22 -11 32 -20
23 -20 -29 -2 -68 18 -68 34 0 10 -9 15 -27 14 -23 -1 -24 -2 -6 -6 12 -2 25
-13 28 -24 4 -10 12 -19 18 -19 7 0 4 -5 -6 -11 -9 -5 -22 -7 -27 -4 -5 3 -7
0 -4 -8 7 -20 -46 -30 -66 -12 -22 18 -43 23 -61 14 -10 -5 -16 -4 -16 4 0 7
-3 23 -7 35 -7 21 -5 23 13 17 12 -4 21 -2 21 4 0 6 -13 11 -29 11 -17 0 -33
5 -37 12 -5 8 -2 9 9 5 23 -9 21 -2 -5 23 -16 14 -24 17 -29 8 -6 -9 -11 -9
-23 1 -8 7 -20 10 -26 6 -5 -3 -10 -1 -10 4 0 14 27 14 36 0 4 -7 9 -8 17 0 7
7 7 14 -1 24 -9 10 -8 14 3 14 7 0 13 -4 12 -9 -1 -5 9 -17 23 -26 l25 -17
-22 35 c-12 19 -26 35 -32 35 -5 0 -13 4 -18 9 -5 5 -3 6 5 2 6 -4 12 -2 12 3
0 19 39 -12 50 -40z m317 -181 c23 -12 43 -25 43 -29 0 -4 -12 -1 -27 7 -16 7
-36 14 -45 14 -9 0 -20 5 -23 10 -4 6 -12 5 -21 -4 -19 -19 -18 -28 4 -25 9 1
24 -1 32 -4 8 -3 24 -8 35 -10 16 -3 14 -5 -10 -11 -16 -4 -39 -12 -50 -17
-11 -5 -12 -7 -3 -5 26 7 85 -12 92 -31 5 -13 4 -13 -7 -4 -8 6 -32 12 -53 14
-21 1 -44 6 -51 10 -7 4 -22 5 -35 2 -13 -3 -40 1 -61 10 -21 9 -42 13 -47 10
-6 -3 -7 1 -4 10 5 12 10 13 17 6 14 -14 47 -14 47 -1 0 6 -7 10 -15 10 -21 0
-19 20 3 20 18 1 63 29 46 31 -5 0 0 4 11 9 27 12 68 5 122 -22z m1833 -693
c0 -3 -29 -19 -64 -35 -210 -94 -481 -154 -816 -180 -190 -15 -395 0 -472 36
-32 14 -29 15 52 9 263 -16 350 -17 498 -1 263 28 511 81 707 150 72 25 95 30
95 21z"/>
<path d="M7320 8142 c-19 -9 -36 -26 -39 -37 -2 -11 -8 -23 -15 -27 -16 -10
-14 -42 4 -49 8 -4 23 -2 33 3 24 12 21 0 -5 -22 l-22 -18 33 -7 c24 -5 36 -3
42 6 8 13 32 18 107 19 37 1 44 20 7 20 -16 0 -25 6 -25 15 0 8 -6 14 -12 13
-7 -2 -12 3 -10 10 1 6 -5 12 -13 12 -8 0 -15 5 -15 10 0 6 16 10 35 10 19 0
35 5 35 10 0 6 -9 10 -19 10 -11 0 -23 5 -26 10 -3 6 0 10 7 10 9 0 9 3 -2 10
-22 14 -60 11 -100 -8z"/>
<path d="M7120 7745 c0 -8 -5 -15 -11 -15 -6 0 -9 -7 -5 -15 3 -8 2 -14 -2
-14 -20 3 -33 -2 -27 -11 3 -5 4 -10 1 -10 -2 0 -11 -3 -20 -6 -11 -4 -16 -1
-16 10 0 9 -5 16 -10 16 -6 0 -4 -13 5 -30 8 -16 15 -36 15 -45 0 -8 8 -15 18
-16 13 0 12 -3 -5 -11 -13 -6 -23 -15 -23 -20 0 -5 10 -4 21 3 17 9 23 8 30
-2 5 -9 6 2 3 26 l-5 40 13 -34 c7 -19 20 -36 28 -39 12 -3 12 -1 2 6 -7 5
-15 26 -18 48 -3 25 -1 34 5 25 5 -7 14 -10 20 -7 14 9 14 4 1 -28 -13 -35 2
-33 33 4 l26 30 4 -28 4 -27 2 29 c1 24 3 27 16 16 21 -17 21 13 0 34 -9 8
-16 19 -16 23 -1 4 -5 7 -10 6 -5 -2 -9 4 -9 13 0 10 -6 14 -14 11 -8 -3 -23
3 -35 14 -17 16 -21 17 -21 4z"/>
<path d="M8457 5005 c-21 -8 -60 -17 -86 -21 -37 -5 -47 -10 -48 -26 -1 -12 6
-22 17 -25 10 -3 16 -11 14 -18 -3 -7 0 -16 6 -20 9 -6 9 -10 -1 -17 -25 -18
90 0 121 19 27 16 30 22 30 70 0 58 1 58 -53 38z"/>
<path d="M7970 4960 c-136 -8 -202 -21 -330 -62 -96 -31 -227 -99 -236 -122
-3 -7 -4 -41 -2 -74 l3 -61 70 45 c93 60 324 132 475 149 83 9 111 16 105 25
-3 5 2 15 10 23 11 12 12 17 2 20 -6 3 2 6 19 6 29 1 83 30 56 31 -7 0 -10 5
-7 10 3 6 0 10 -9 10 -8 0 -20 2 -28 3 -7 2 -65 1 -128 -3z"/>
<path d="M4040 9582 c0 -9 9 -23 20 -30 28 -17 29 -126 3 -141 -16 -8 -16 -10
-2 -16 17 -6 23 -71 8 -81 -5 -3 -9 4 -9 15 0 28 -17 35 -23 10 -3 -12 4 -47
15 -78 14 -36 21 -75 19 -111 -2 -65 -2 -81 -2 -270 1 -80 5 -182 11 -228 12
-105 4 -128 -22 -70 -19 40 -21 42 -29 20 -14 -36 0 -77 32 -96 16 -9 31 -17
34 -16 21 1 25 -4 26 -32 l1 -33 8 35 c4 19 10 59 13 88 5 47 4 52 -13 52 -17
0 -18 4 -10 25 6 15 6 26 0 30 -15 9 -12 45 3 42 6 -1 10 5 8 13 -14 54 -20
175 -19 389 l1 246 58 110 c36 70 55 116 50 127 -4 13 -12 2 -29 -40 -12 -31
-34 -70 -48 -87 l-26 -30 5 43 c3 24 13 52 21 61 15 16 15 19 1 31 -8 7 -15
19 -15 26 0 10 -13 14 -45 14 -36 0 -45 -3 -45 -18z"/>
<path d="M4588 8754 c-27 -63 -43 -70 -34 -15 7 46 -7 61 -34 36 -15 -14 -17
-28 -14 -85 3 -40 0 -71 -6 -75 -5 -3 -10 -20 -10 -37 0 -31 0 -31 21 -12 12
10 29 18 40 16 14 -2 20 7 29 40 23 95 33 123 45 133 7 5 16 19 19 30 4 16 1
21 -13 22 -14 1 -25 -13 -43 -53z"/>
</g>
</svg>


